<svg width="160" height="160" viewBox="0 0 160 160" fill="none" xmlns="http://www.w3.org/2000/svg">
<g clip-path="url(#clip0_414_71)">
<path d="M80 36.6666C35.14 36.6666 0 55.7 0 80C0 104.3 35.14 123.333 80 123.333C124.86 123.333 160 104.3 160 80C160 55.7 124.86 36.6666 80 36.6666ZM71.6933 50H80.4267L77.6533 63.3333H85.4533C90.4 63.3333 93.72 64.0266 95.6133 65.7533C97.46 67.46 98.02 70.26 97.28 74.0733L93.8133 90H84.9333L88.1267 75.2733C88.5133 73.2533 88.36 71.8466 87.68 71.1066C87.0067 70.3666 85.52 70 83.2933 70H76.3L72.08 90H63.3333L71.6933 50ZM33.3333 63.3333H51.1067C59.58 63.3333 64.7133 69.0133 62.7067 77.4866C60.3733 87.3333 54.1333 90 42.64 90H37.1467L35.4067 100H26.5733L33.3333 63.3333ZM103.333 63.3333H121.107C129.58 63.3333 134.713 69.0133 132.707 77.4866C130.373 87.3333 124.127 90 112.64 90H107.147L105.407 100H96.5733L103.333 63.3333ZM40.9 70L38.3867 83.3333H44.0867C49.02 83.3333 53.6067 82.7733 54.3733 75.42C54.66 72.5666 53.4733 70 47.7733 70H40.9ZM110.9 70L108.387 83.3333H114.087C119.02 83.3333 123.607 82.7733 124.373 75.42C124.66 72.5666 123.48 70 117.773 70H110.9Z" fill="white"/>
</g>
<defs>
<clipPath id="clip0_414_71">
<rect width="160" height="160" fill="white"/>
</clipPath>
</defs>
</svg>
