<svg width="1440" height="797" viewBox="0 0 1440 797" fill="none" xmlns="http://www.w3.org/2000/svg">
<g clip-path="url(#clip0_441_11)">
<path d="M2.42244 1.37533C2.41045 -4.76866 3.80991 -10.1474 6.62082 -14.7609C9.51719 -19.3745 13.3982 -22.9661 18.264 -25.5356C23.2152 -28.1052 28.8098 -29.3961 35.0477 -29.4082C41.2857 -29.4204 46.8426 -28.1512 51.7184 -25.6007C56.6795 -23.0503 60.5745 -19.4739 63.4035 -14.8714C66.3178 -10.2691 67.781 -4.89589 67.793 1.2481C67.8048 7.30675 66.3627 12.6855 63.4665 17.3845C60.6556 21.998 56.7745 25.5896 51.8233 28.1592C46.9576 30.7287 41.4057 32.0195 35.1677 32.0316C28.9297 32.0438 23.3301 30.7747 18.3689 28.2243C13.4931 25.6738 9.59813 22.0974 6.68378 17.495C3.85471 12.8072 2.43427 7.43399 2.42244 1.37533ZM19.3419 1.3424C19.3484 4.67039 20.0377 7.61306 21.4099 10.1704C22.8674 12.6422 24.7939 14.6011 27.1894 16.0471C29.5848 17.4078 32.235 18.0853 35.1405 18.0797C38.0458 18.074 40.6935 17.3862 43.0835 16.0162C45.4733 14.5609 47.3494 12.5946 48.7118 10.1172C50.1595 7.55443 50.88 4.60903 50.8736 1.28103C50.8671 -2.04696 50.135 -4.98955 48.6772 -7.54672C47.305 -10.1041 45.4213 -12.0631 43.026 -13.4237C40.6307 -14.7844 37.9803 -15.4619 35.075 -15.4563C32.1696 -15.4506 29.522 -14.7628 27.132 -13.3928C24.7419 -12.0228 22.8232 -10.0564 21.3755 -7.49358C20.0133 -4.93092 19.3353 -1.9856 19.3419 1.3424Z" fill="#AFD9FF" fill-opacity="0.04"/>
<path d="M118.304 -5.25026C118.297 -9.17559 117.522 -12.1607 115.98 -14.2057C114.438 -16.2507 111.957 -17.2699 108.54 -17.2633C106.232 -17.2588 104.183 -16.7428 102.39 -15.7153C100.598 -14.7731 99.2327 -13.4051 98.2962 -11.6113C97.3598 -9.81751 96.894 -7.68326 96.8988 -5.2086L96.9687 30.6314L80.3057 30.6638L80.1907 -28.2161L96.8538 -28.2485L96.8714 -19.2886C98.6593 -22.62 101.004 -25.1419 103.906 -26.8543C106.893 -28.6521 110.481 -29.5551 114.668 -29.5632C121.675 -29.5769 126.892 -27.5817 130.318 -23.5777C133.744 -19.659 135.463 -14.1583 135.477 -7.07569L135.55 30.5563L118.374 30.5897L118.304 -5.25026Z" fill="#AFD9FF" fill-opacity="0.04"/>
<path d="M154.813 10.1667C157.296 12.4659 159.606 14.3387 161.745 15.7852C163.884 17.1464 165.895 18.1665 167.776 18.8455C169.742 19.5244 171.581 19.8621 173.289 19.8588C175.511 19.8545 177.22 19.3818 178.414 18.4408C179.608 17.4145 180.204 16.048 180.201 14.3413C180.198 12.8053 179.682 11.5263 178.655 10.5043C177.712 9.39685 176.301 8.41827 174.419 7.5686C172.537 6.71892 170.143 5.82758 167.236 4.89457C164.5 3.87589 161.848 2.68637 159.282 1.32603C156.715 -0.119637 154.575 -1.99281 152.862 -4.29348C151.234 -6.67965 150.417 -9.7074 150.41 -13.3767C150.403 -16.8754 151.337 -19.8212 153.211 -22.2142C155.087 -24.6925 157.605 -26.5321 160.764 -27.7329C164.008 -29.0192 167.596 -29.6662 171.527 -29.6739C174.86 -29.6804 177.979 -29.2598 180.886 -28.4121C183.793 -27.5644 186.488 -26.4177 188.968 -24.9718C191.449 -23.6113 193.632 -21.9942 195.515 -20.1205L188.228 -9.86632C186.088 -12.1662 183.521 -14.0385 180.527 -15.4834C177.618 -16.9284 174.754 -17.6481 171.934 -17.6426C170.055 -17.639 168.56 -17.2521 167.451 -16.4819C166.427 -15.7973 165.916 -14.7296 165.919 -13.2789C165.921 -11.9989 166.437 -10.8479 167.464 -9.8259C168.577 -8.8894 170.116 -8.03906 172.084 -7.27489C174.136 -6.51088 176.445 -5.57671 179.01 -4.47237C182.175 -3.28386 185.083 -1.92418 187.734 -0.393339C190.471 1.052 192.654 2.88242 194.282 5.09792C195.91 7.31342 196.728 10.2132 196.735 13.7971C196.746 19.6851 194.832 24.2969 190.994 27.6323C187.155 30.8825 181.859 32.5141 175.109 32.5273C170.922 32.5354 167.076 31.9882 163.57 30.8857C160.149 29.783 157.028 28.3385 154.204 26.5519C151.466 24.6799 148.985 22.6794 146.759 20.5504L154.813 10.1667Z" fill="#AFD9FF" fill-opacity="0.04"/>
<path d="M200.555 -28.4504L236.958 -28.5212L236.985 -14.5692L200.582 -14.4984L200.555 -28.4504ZM210.641 -48.95L226.663 -48.9812L226.819 30.3786L210.796 30.4098L210.641 -48.95Z" fill="#AFD9FF" fill-opacity="0.04"/>
<path d="M305.518 -20.0786L299.848 30.2365L280.749 30.2737L293.897 -63.8321L331.565 -6.04929L369.008 -63.9783L382.523 30.0756L363.424 30.1128L357.558 -20.1799L331.62 21.8546L305.518 -20.0786Z" fill="#AFD9FF" fill-opacity="0.04"/>
<path d="M451.394 -28.9386L413.111 58.1761L396.063 58.2093L410.865 24.1324L386.28 -28.8118L404.737 -28.8478L423.799 17.9632L415.595 17.7232L434.09 -28.9049L451.394 -28.9386Z" fill="#AFD9FF" fill-opacity="0.04"/>
<path d="M477.024 -14.9084C477.036 -9.02045 478.369 -3.86037 481.027 0.571796C483.771 4.91847 487.323 8.28222 491.686 10.6631C496.049 12.9586 500.794 14.1014 505.921 14.0914C510.193 14.0831 513.995 13.521 517.325 12.4052C520.655 11.2894 523.643 9.79021 526.289 7.90772C529.02 6.02507 531.365 3.97249 533.327 1.75001L533.367 22.358C529.698 25.2665 525.686 27.5356 521.331 29.1654C517.062 30.7951 511.638 31.6163 505.057 31.6291C498.221 31.6424 491.853 30.5455 485.953 28.3383C480.138 26.1309 475.047 22.9408 470.681 18.768C466.4 14.595 463.057 9.69479 460.654 4.06746C458.336 -1.64538 457.17 -7.95779 457.156 -14.8698C457.143 -21.7818 458.285 -28.056 460.581 -33.6925C462.962 -39.4144 466.285 -44.3703 470.55 -48.5599C474.899 -52.7497 479.978 -55.9596 485.784 -58.1896C491.676 -60.4197 498.04 -61.5414 504.875 -61.5547C511.455 -61.5675 516.883 -60.7674 521.159 -59.1544C525.52 -57.5416 529.54 -55.2881 533.221 -52.3939L533.261 -31.7859C531.291 -34.0008 528.938 -36.0442 526.199 -37.9162C523.546 -39.7884 520.553 -41.2759 517.218 -42.3787C513.884 -43.4816 510.079 -44.0288 505.808 -44.0205C500.68 -44.0105 495.94 -42.8066 491.587 -40.4088C487.233 -38.0963 483.693 -34.7615 480.967 -30.4041C478.326 -26.047 477.013 -20.8818 477.024 -14.9084Z" fill="#AFD9FF" fill-opacity="0.04"/>
<path d="M546.05 0.317268C546.038 -5.82672 547.438 -11.2055 550.249 -15.819C553.145 -20.4326 557.027 -24.0242 561.892 -26.5936C566.843 -29.1633 572.438 -30.4542 578.676 -30.4663C584.913 -30.4784 590.471 -29.2093 595.347 -26.6587C600.308 -24.1084 604.202 -20.532 607.031 -15.9295C609.946 -11.3271 611.409 -5.95394 611.421 0.190041C611.433 6.2487 609.991 11.6275 607.094 16.3265C604.283 20.94 600.403 24.5315 595.451 27.1012C590.585 29.6706 585.033 30.9614 578.796 30.9736C572.558 30.9857 566.958 29.7166 561.996 27.1663C557.121 24.6158 553.226 21.0393 550.311 16.437C547.482 11.7492 546.062 6.37593 546.05 0.317268ZM562.97 0.28434C562.976 3.61233 563.666 6.55499 565.038 9.11232C566.496 11.5841 568.421 13.5431 570.818 14.9891C573.213 16.3497 575.863 17.0273 578.769 17.0216C581.674 17.016 584.321 16.3281 586.712 14.9581C589.101 13.5028 590.978 11.5365 592.34 9.05919C593.788 6.49637 594.508 3.55097 594.502 0.222969C594.495 -3.10503 593.763 -6.04761 592.306 -8.60477C590.933 -11.1621 589.049 -13.1211 586.654 -14.4818C584.258 -15.8425 581.609 -16.52 578.703 -16.5143C575.798 -16.5087 573.15 -15.8209 570.76 -14.4509C568.37 -13.0809 566.451 -11.1145 565.004 -8.55164C563.641 -5.98899 562.963 -3.04366 562.97 0.28434Z" fill="#AFD9FF" fill-opacity="0.04"/>
<path d="M711.021 -8.19583L711.094 29.4361L694.431 29.4685L694.361 -6.37139C694.353 -10.3821 693.664 -13.3674 692.293 -15.3274C690.921 -17.3727 688.698 -18.3924 685.622 -18.3864C683.571 -18.3824 681.778 -17.9096 680.241 -16.968C678.704 -16.1116 677.511 -14.744 676.661 -12.865C675.809 -11.0713 675.386 -8.89447 675.391 -6.33448L675.461 29.5054L658.926 29.5376L658.856 -6.30229C658.849 -10.313 658.159 -13.2983 656.788 -15.2583C655.417 -17.3036 653.193 -18.3233 650.117 -18.3173C648.066 -18.3133 646.272 -17.8405 644.736 -16.8988C643.199 -16.0425 642.005 -14.6749 641.155 -12.7959C640.304 -11.0022 639.88 -8.82536 639.886 -6.26537L639.956 29.5745L623.933 29.6057L623.818 -29.2742L639.84 -29.3053L639.857 -20.6014C641.561 -23.8473 643.82 -26.3264 646.637 -28.0386C649.454 -29.7507 652.827 -30.6106 656.758 -30.6183C661.116 -30.6268 664.707 -29.7804 667.53 -28.0792C670.353 -26.3781 672.409 -23.8647 673.697 -20.5392C675.826 -23.8714 678.428 -26.3938 681.501 -28.1064C684.66 -29.8192 688.247 -30.6796 692.263 -30.6874C696.621 -30.6959 700.169 -29.8068 702.907 -28.0201C705.645 -26.3187 707.658 -23.7627 708.946 -20.3518C710.32 -17.0265 711.011 -12.9745 711.021 -8.19583Z" fill="#AFD9FF" fill-opacity="0.04"/>
<path d="M743.786 57.5325L727.122 57.5649L726.952 -29.4749L743.615 -29.5073L743.786 57.5325ZM792.125 -0.161688C792.138 6.49429 790.824 12.1715 788.184 16.87C785.545 21.5685 782.048 25.1166 777.694 27.5145C773.426 29.9121 768.814 31.1158 763.857 31.1254C758.816 31.1352 754.413 29.8638 750.648 27.3111C746.969 24.7583 744.099 21.1372 742.039 16.4478C740.064 11.7583 739.071 6.25625 739.059 -0.0584011C739.046 -6.45839 740.018 -11.9643 741.974 -16.5761C744.016 -21.2734 746.872 -24.9057 750.541 -27.4728C754.296 -30.0401 758.694 -31.3287 763.736 -31.3385C768.692 -31.3481 773.309 -30.1625 777.586 -27.7814C781.949 -25.4006 785.459 -21.8661 788.117 -17.1779C790.776 -12.5751 792.111 -6.90301 792.125 -0.161688ZM774.949 -0.128256C774.942 -3.62692 774.21 -6.61217 772.752 -9.084C771.295 -11.5558 769.325 -13.4293 766.845 -14.7045C764.449 -15.9798 761.8 -16.6147 758.894 -16.609C756.416 -16.6042 753.982 -15.9595 751.591 -14.6748C749.287 -13.4757 747.368 -11.6373 745.834 -9.15961C744.386 -6.68212 743.666 -3.65139 743.673 -0.0673885C743.68 3.5166 744.412 6.54453 745.869 9.01637C747.413 11.488 749.339 13.3616 751.649 14.6371C754.044 15.8271 756.48 16.4197 758.959 16.4149C761.864 16.4092 764.511 15.7641 766.902 14.4794C769.377 13.1946 771.339 11.3135 772.787 8.83598C774.235 6.35849 774.955 3.3704 774.949 -0.128256Z" fill="#AFD9FF" fill-opacity="0.04"/>
<path d="M800.528 -0.178017C800.516 -6.322 801.915 -11.7008 804.726 -16.3142C807.622 -20.9279 811.504 -24.5194 816.369 -27.0889C821.32 -29.6586 826.915 -30.9495 833.154 -30.9616C839.391 -30.9737 844.948 -29.7045 849.824 -27.154C854.785 -24.6037 858.68 -21.0273 861.509 -16.4248C864.423 -11.8224 865.886 -6.44924 865.898 -0.305252C865.91 5.75341 864.468 11.1322 861.572 15.8312C858.761 20.4447 854.88 24.0362 849.929 26.6059C845.063 29.1753 839.511 30.4662 833.273 30.4783C827.035 30.4904 821.435 29.2213 816.474 26.671C811.599 24.1205 807.703 20.544 804.789 15.9417C801.96 11.2539 800.539 5.88064 800.528 -0.178017ZM817.447 -0.210953C817.454 3.11704 818.143 6.05971 819.516 8.61705C820.973 11.0889 822.899 13.0478 825.295 14.4938C827.69 15.8545 830.341 16.532 833.246 16.5263C836.151 16.5207 838.798 15.8328 841.189 14.4629C843.579 13.0075 845.455 11.0412 846.818 8.5639C848.265 6.00108 848.986 3.05568 848.979 -0.272316C848.973 -3.60032 848.24 -6.5429 846.782 -9.10007C845.411 -11.6574 843.527 -13.6164 841.132 -14.9771C838.736 -16.3378 836.086 -17.0153 833.181 -17.0096C830.275 -17.004 827.627 -16.3161 825.238 -14.9462C822.847 -13.5762 820.929 -11.6098 819.481 -9.04692C818.119 -6.48427 817.441 -3.53894 817.447 -0.210953Z" fill="#AFD9FF" fill-opacity="0.04"/>
<path d="M916.41 -6.80362C916.402 -10.7289 915.627 -13.7141 914.085 -15.7591C912.543 -17.8041 910.063 -18.8233 906.644 -18.8166C904.337 -18.8121 902.287 -18.2961 900.495 -17.2686C898.702 -16.3265 897.339 -14.9585 896.401 -13.1647C895.465 -11.3708 894.999 -9.23662 895.004 -6.76195L895.074 29.078L878.411 29.1104L878.296 -29.7695L894.959 -29.8019L894.976 -20.8419C896.765 -24.1734 899.11 -26.6953 902.012 -28.4076C904.999 -30.2054 908.586 -31.1084 912.773 -31.1166C919.781 -31.1302 924.997 -29.135 928.423 -25.131C931.848 -21.2123 933.568 -15.7117 933.582 -8.62904L933.656 29.0029L916.48 29.0363L916.41 -6.80362Z" fill="#AFD9FF" fill-opacity="0.04"/>
<path d="M977.827 30.1969C971.418 30.2094 965.819 28.9403 961.029 26.3896C956.238 23.839 952.514 20.3049 949.856 15.7874C947.284 11.1844 945.991 5.7682 945.979 -0.461115C945.967 -6.77577 947.238 -12.1969 949.793 -16.7246C952.433 -21.3377 956.143 -24.8863 960.924 -27.3703C965.703 -29.9396 971.341 -31.2305 977.835 -31.2432C984.33 -31.2558 989.844 -30.0719 994.377 -27.6914C998.997 -25.3964 1002.51 -21.9899 1004.9 -17.4719C1007.31 -13.0392 1008.52 -7.66551 1008.53 -1.35086C1008.53 -0.582856 1008.49 0.227891 1008.41 1.08139C1008.41 1.93472 1008.37 2.61747 1008.28 3.12963L955.471 3.23242L955.452 -7.00757L993.776 -7.08216L989.302 -1.18544C989.643 -1.6981 989.941 -2.38135 990.195 -3.23518C990.535 -4.17451 990.705 -4.94284 990.703 -5.54017C990.698 -8.4415 990.137 -10.9151 989.023 -12.9609C987.993 -15.0069 986.495 -16.6253 984.527 -17.8162C982.56 -19.007 980.251 -19.5999 977.602 -19.5947C974.354 -19.5884 971.622 -18.8577 969.403 -17.4027C967.27 -16.0333 965.607 -13.9394 964.416 -11.121C963.31 -8.3882 962.719 -4.9737 962.641 -0.877542C962.649 3.04778 963.211 6.3747 964.327 9.1032C965.529 11.8315 967.285 13.9188 969.595 15.3649C971.905 16.8111 974.684 17.531 977.93 17.5247C981.605 17.5176 984.723 16.8288 987.283 15.4585C989.93 14.0027 992.105 11.8651 993.808 9.04582L1008.3 13.4976C1005.23 19.0502 1001.14 23.2396 996.02 26.0655C990.984 28.806 984.92 30.1831 977.827 30.1969Z" fill="#AFD9FF" fill-opacity="0.04"/>
<path d="M1059.11 -7.0813C1059.1 -11.0066 1058.33 -13.9918 1056.79 -16.0368C1055.24 -18.0818 1052.76 -19.101 1049.35 -19.0943C1047.03 -19.0898 1044.99 -18.5739 1043.2 -17.5464C1041.4 -16.6042 1040.03 -15.2362 1039.1 -13.4424C1038.16 -11.6486 1037.7 -9.5143 1037.7 -7.03964L1037.77 28.8003L1021.11 28.8327L1021 -30.0472L1037.66 -30.0796L1037.68 -21.1196C1039.46 -24.4511 1041.8 -26.973 1044.71 -28.6853C1047.69 -30.4832 1051.29 -31.3861 1055.47 -31.3943C1062.47 -31.4079 1067.69 -29.4127 1071.12 -25.4087C1074.55 -21.4901 1076.26 -15.9894 1076.28 -8.90672L1076.35 28.7252L1059.18 28.7586L1059.11 -7.0813Z" fill="#AFD9FF" fill-opacity="0.04"/>
<path d="M1085.03 -30.1718L1121.44 -30.2427L1121.46 -16.2907L1085.05 -16.2198L1085.03 -30.1718ZM1095.12 -50.6715L1111.14 -50.7027L1111.29 28.6572L1095.27 28.6884L1095.12 -50.6715Z" fill="#AFD9FF" fill-opacity="0.04"/>
<path d="M1168.15 15.6185L1168.12 1.02655L1232.85 0.90057L1232.88 15.4925L1168.15 15.6185ZM1168.1 -8.57344L1168.07 -23.1654L1232.8 -23.2914L1232.83 -8.69942L1168.1 -8.57344Z" fill="#AFD9FF" fill-opacity="0.04"/>
<path d="M1303.57 -71.5572L1318.7 -71.5867C1314.27 -62.0207 1310.92 -51.9022 1308.63 -41.231C1306.34 -30.5599 1305.21 -19.763 1305.23 -8.84032C1305.25 1.99699 1306.42 12.7467 1308.76 23.4089C1311.08 34.071 1314.47 44.2191 1318.94 53.8531L1303.82 53.8825C1298.67 44.2499 1294.81 34.1027 1292.22 23.441C1289.72 12.7792 1288.46 2.02967 1288.44 -8.80764C1288.42 -19.7303 1289.64 -30.5274 1292.09 -41.1988C1294.64 -51.8705 1298.46 -61.9899 1303.57 -71.5572Z" fill="#AFD9FF" fill-opacity="0.04"/>
<path d="M1338.95 53.8142L1323.82 53.8436C1328.33 44.1921 1331.73 34.0308 1334.01 23.3597C1336.3 12.6886 1337.44 1.93432 1337.42 -8.90299C1337.39 -19.8256 1336.21 -30.618 1333.89 -41.2802C1331.56 -51.9423 1328.12 -62.0477 1323.58 -71.5962L1338.7 -71.6256C1343.84 -62.0783 1347.67 -51.9737 1350.16 -41.3119C1352.75 -30.6502 1354.05 -19.8581 1354.08 -8.93542C1354.1 1.90189 1352.84 12.6564 1350.29 23.328C1347.83 33.9995 1344.05 44.1615 1338.95 53.8142Z" fill="#AFD9FF" fill-opacity="0.04"/>
<path d="M1409.74 15.1483L1409.71 0.556339L1474.44 0.430355L1474.47 15.0223L1409.74 15.1483ZM1409.69 -9.04365L1409.66 -23.6356L1474.38 -23.7616L1474.42 -9.16963L1409.69 -9.04365Z" fill="#AFD9FF" fill-opacity="0.04"/>
<path d="M33.463 186.315C33.4696 189.729 34.2445 192.714 35.7876 195.271C37.3308 197.828 39.3855 199.829 41.9519 201.275C44.6038 202.72 47.5105 203.44 50.6723 203.434C53.2357 203.429 55.7132 203.04 58.1043 202.267C60.4953 201.409 62.6294 200.296 64.5067 198.927C66.4692 197.472 67.9613 195.805 68.9832 193.926L69.0163 210.95C66.9692 212.831 64.2803 214.33 60.9499 215.446C57.7047 216.476 53.9031 216.996 49.5451 217.004C43.3072 217.016 37.6648 215.747 32.6181 213.197C27.6569 210.647 23.7192 207.07 20.8048 202.468C17.9758 197.78 16.5554 192.407 16.5435 186.348C16.5315 180.204 17.931 174.825 20.742 170.212C23.6383 165.598 27.562 162.007 32.5133 159.437C37.5499 156.867 43.1872 155.576 49.4252 155.564C53.7832 155.556 57.587 156.103 60.8363 157.206C64.1709 158.223 66.8653 159.626 68.9197 161.414L68.9529 178.438C67.9238 176.563 66.3826 174.944 64.329 173.583C62.3608 172.136 60.1797 171.031 57.7854 170.268C55.3913 169.505 52.9979 169.125 50.6053 169.13C47.4436 169.136 44.5397 169.91 41.8937 171.451C39.3329 172.906 37.286 174.916 35.7529 177.479C34.2198 180.042 33.4565 182.987 33.463 186.315Z" fill="#AFD9FF" fill-opacity="0.04"/>
<path d="M79.64 186.225C79.628 180.081 81.0274 174.703 83.8383 170.089C86.7347 165.476 90.6157 161.884 95.4814 159.314C100.432 156.745 106.027 155.454 112.266 155.442C118.503 155.43 124.06 156.699 128.936 159.249C133.897 161.8 137.792 165.376 140.621 169.979C143.535 174.581 144.998 179.954 145.01 186.098C145.022 192.157 143.58 197.536 140.684 202.235C137.873 206.848 133.992 210.44 129.041 213.009C124.175 215.579 118.624 216.87 112.385 216.882C106.147 216.894 100.547 215.625 95.5864 213.074C90.7106 210.524 86.8156 206.947 83.9013 202.345C81.0723 197.657 79.6518 192.284 79.64 186.225ZM96.5593 186.192C96.5658 189.52 97.2552 192.463 98.6274 195.02C100.085 197.492 102.011 199.451 104.407 200.897C106.802 202.258 109.453 202.935 112.358 202.93C115.263 202.924 117.911 202.236 120.301 200.866C122.691 199.411 124.567 197.445 125.93 194.967C127.377 192.404 128.098 189.459 128.091 186.131C128.085 182.803 127.353 179.86 125.895 177.303C124.523 174.746 122.639 172.787 120.244 171.426C117.848 170.066 115.198 169.388 112.293 169.394C109.387 169.399 106.739 170.087 104.35 171.457C101.959 172.827 100.041 174.794 98.593 177.356C97.2308 179.919 96.5528 182.864 96.5593 186.192Z" fill="#AFD9FF" fill-opacity="0.04"/>
<path d="M195.522 179.6C195.514 175.674 194.739 172.689 193.197 170.644C191.655 168.599 189.175 167.58 185.757 167.587C183.449 167.591 181.4 168.107 179.607 169.135C177.815 170.077 176.451 171.445 175.513 173.239C174.577 175.033 174.111 177.167 174.116 179.641L174.187 215.481L157.523 215.514L157.408 156.634L174.071 156.602L174.088 165.562C175.877 162.23 178.222 159.708 181.124 157.996C184.111 156.198 187.698 155.295 191.885 155.287C198.893 155.273 204.109 157.268 207.535 161.272C210.961 165.191 212.68 170.692 212.694 177.774L212.768 215.406L195.592 215.44L195.522 179.6Z" fill="#AFD9FF" fill-opacity="0.04"/>
<path d="M232.031 195.017C234.513 197.316 236.824 199.189 238.963 200.635C241.102 201.996 243.112 203.017 244.994 203.696C246.961 204.374 248.798 204.712 250.507 204.709C252.729 204.705 254.437 204.232 255.632 203.291C256.826 202.265 257.421 200.898 257.418 199.191C257.415 197.655 256.9 196.376 255.873 195.354C254.931 194.247 253.519 193.268 251.637 192.419C249.755 191.569 247.361 190.678 244.454 189.745C241.717 188.726 239.066 187.536 236.5 186.176C233.933 184.73 231.793 182.857 230.08 180.557C228.452 178.17 227.634 175.143 227.627 171.473C227.62 167.975 228.554 165.029 230.43 162.636C232.304 160.158 234.822 158.318 237.981 157.117C241.226 155.831 244.814 155.184 248.744 155.176C252.077 155.17 255.197 155.59 258.104 156.438C261.011 157.286 263.705 158.432 266.185 159.878C268.667 161.239 270.849 162.856 272.732 164.73L265.446 174.984C263.305 172.684 260.738 170.812 257.744 169.367C254.836 167.922 251.972 167.202 249.153 167.207C247.272 167.211 245.778 167.598 244.668 168.368C243.644 169.053 243.133 170.12 243.136 171.571C243.139 172.851 243.654 174.002 244.681 175.024C245.794 175.961 247.334 176.811 249.301 177.575C251.353 178.339 253.662 179.273 256.227 180.378C259.392 181.566 262.3 182.926 264.951 184.457C267.689 185.902 269.871 187.732 271.5 189.948C273.128 192.163 273.945 195.063 273.952 198.647C273.964 204.535 272.049 209.147 268.211 212.482C264.372 215.733 259.077 217.364 252.327 217.377C248.139 217.385 244.293 216.838 240.787 215.736C237.367 214.633 234.245 213.189 231.422 211.402C228.684 209.53 226.202 207.529 223.976 205.4L232.031 195.017Z" fill="#AFD9FF" fill-opacity="0.04"/>
<path d="M277.773 156.4L314.176 156.329L314.203 170.281L277.8 170.352L277.773 156.4ZM287.859 135.9L303.881 135.869L304.036 215.229L288.013 215.26L287.859 135.9Z" fill="#AFD9FF" fill-opacity="0.04"/>
<path d="M364.465 194.759C366.947 197.058 369.257 198.931 371.397 200.378C373.536 201.739 375.546 202.759 377.427 203.438C379.394 204.117 381.232 204.454 382.941 204.451C385.162 204.447 386.871 203.974 388.065 203.033C389.259 202.007 389.855 200.64 389.852 198.934C389.849 197.398 389.333 196.119 388.306 195.097C387.364 193.989 385.952 193.011 384.071 192.161C382.189 191.311 379.795 190.42 376.887 189.487C374.151 188.468 371.499 187.279 368.933 185.918C366.367 184.473 364.227 182.599 362.513 180.299C360.885 177.913 360.067 174.885 360.06 171.216C360.053 167.717 360.988 164.771 362.863 162.378C364.738 159.9 367.255 158.06 370.415 156.859C373.659 155.573 377.247 154.926 381.178 154.918C384.51 154.912 387.63 155.333 390.537 156.18C393.444 157.028 396.138 158.175 398.619 159.62C401.1 160.981 403.282 162.598 405.166 164.472L397.88 174.726C395.739 172.426 393.171 170.554 390.178 169.109C387.27 167.664 384.405 166.944 381.585 166.95C379.706 166.953 378.212 167.34 377.102 168.11C376.078 168.795 375.567 169.863 375.57 171.313C375.572 172.593 376.088 173.744 377.115 174.766C378.228 175.703 379.768 176.553 381.734 177.317C383.786 178.081 386.096 179.016 388.661 180.12C391.825 181.308 394.733 182.668 397.385 184.199C400.123 185.644 402.305 187.475 403.933 189.69C405.56 191.906 406.379 194.805 406.386 198.389C406.397 204.277 404.483 208.889 400.645 212.225C396.805 215.475 391.511 217.106 384.76 217.12C380.573 217.128 376.727 216.581 373.221 215.478C369.801 214.375 366.679 212.931 363.856 211.144C361.117 209.272 358.635 207.272 356.409 205.143L364.465 194.759Z" fill="#AFD9FF" fill-opacity="0.04"/>
<path d="M410.206 156.142L446.608 156.071L446.636 170.023L410.234 170.094L410.206 156.142ZM420.293 135.642L436.315 135.611L436.469 214.971L420.447 215.002L420.293 135.642Z" fill="#AFD9FF" fill-opacity="0.04"/>
<path d="M511.588 155.945L473.304 243.059L456.257 243.092L471.059 209.016L446.473 156.071L464.931 156.035L483.993 202.846L475.789 202.606L494.284 155.978L511.588 155.945Z" fill="#AFD9FF" fill-opacity="0.04"/>
<path d="M518.954 114.97L535.617 114.938L535.812 214.778L519.149 214.81L518.954 114.97Z" fill="#AFD9FF" fill-opacity="0.04"/>
<path d="M580.011 215.972C573.602 215.984 568.004 214.715 563.213 212.164C558.422 209.614 554.698 206.079 552.041 201.562C549.468 196.959 548.176 191.543 548.164 185.313C548.151 178.999 549.423 173.578 551.977 169.05C554.617 164.437 558.327 160.888 563.108 158.404C567.889 155.835 573.525 154.544 580.02 154.531C586.514 154.519 592.028 155.703 596.562 158.083C601.181 160.378 604.691 163.785 607.093 168.303C609.494 172.735 610.701 178.109 610.713 184.424C610.714 185.192 610.673 186.002 610.59 186.856C610.591 187.709 610.55 188.392 610.466 188.904L557.656 189.007L557.636 178.767L595.962 178.692L591.486 184.589C591.828 184.077 592.125 183.393 592.38 182.539C592.72 181.6 592.889 180.832 592.888 180.234C592.882 177.333 592.322 174.86 591.207 172.814C590.178 170.768 588.679 169.149 586.712 167.958C584.744 166.768 582.436 166.175 579.786 166.18C576.54 166.186 573.806 166.917 571.588 168.372C569.454 169.741 567.791 171.835 566.601 174.654C565.495 177.386 564.903 180.801 564.826 184.897C564.833 188.822 565.396 192.149 566.512 194.878C567.713 197.606 569.47 199.693 571.779 201.14C574.089 202.586 576.868 203.306 580.116 203.299C583.79 203.292 586.907 202.603 589.469 201.233C592.114 199.777 594.289 197.64 595.993 194.82L610.486 199.272C607.42 204.825 603.327 209.014 598.205 211.84C593.169 214.581 587.104 215.958 580.011 215.972Z" fill="#AFD9FF" fill-opacity="0.04"/>
<path d="M626.202 194.25C628.684 196.549 630.995 198.422 633.134 199.868C635.273 201.229 637.283 202.249 639.165 202.928C641.131 203.607 642.969 203.945 644.678 203.942C646.9 203.937 648.608 203.465 649.802 202.524C650.997 201.497 651.593 200.131 651.589 198.424C651.586 196.888 651.071 195.609 650.044 194.587C649.101 193.48 647.689 192.501 645.808 191.651C643.926 190.802 641.532 189.91 638.625 188.977C635.888 187.959 633.237 186.769 630.671 185.409C628.104 183.963 625.964 182.09 624.251 179.789C622.623 177.403 621.804 174.375 621.797 170.706C621.79 167.207 622.725 164.262 624.6 161.869C626.476 159.39 628.992 157.551 632.152 156.35C635.396 155.064 638.984 154.417 642.915 154.409C646.247 154.403 649.368 154.823 652.275 155.671C655.182 156.518 657.875 157.665 660.357 159.111C662.837 160.472 665.019 162.089 666.903 163.962L659.617 174.217C657.476 171.917 654.909 170.044 651.915 168.6C649.007 167.155 646.143 166.435 643.323 166.44C641.444 166.444 639.949 166.831 638.839 167.601C637.816 168.286 637.305 169.353 637.307 170.804C637.31 172.084 637.825 173.235 638.852 174.257C639.965 175.193 641.505 176.044 643.471 176.808C645.524 177.572 647.833 178.506 650.399 179.611C653.562 180.799 656.47 182.159 659.123 183.69C661.86 185.135 664.043 186.965 665.67 189.181C667.299 191.396 668.116 194.296 668.123 197.88C668.135 203.768 666.221 208.38 662.382 211.715C658.543 214.965 653.248 216.597 646.498 216.61C642.31 216.618 638.464 216.071 634.959 214.969C631.538 213.866 628.417 212.421 625.593 210.635C622.855 208.763 620.372 206.762 618.146 204.633L626.202 194.25Z" fill="#AFD9FF" fill-opacity="0.04"/>
<path d="M717.383 201.496L717.355 186.904L782.085 186.778L782.113 201.37L717.383 201.496ZM717.336 177.304L717.308 162.712L782.038 162.586L782.066 177.178L717.336 177.304Z" fill="#AFD9FF" fill-opacity="0.04"/>
<path d="M858.485 134.021L858.519 151.429C858.525 154.245 858.402 157.232 858.152 160.39C857.902 163.548 857.224 166.493 856.118 169.226C855.098 171.873 853.436 174.053 851.133 175.764C848.828 177.475 845.583 178.335 841.396 178.343L841.391 175.783C845.578 175.775 848.826 176.622 851.137 178.324C853.448 180.026 855.118 182.241 856.148 184.97C857.265 187.613 857.954 190.513 858.216 193.67C858.48 196.827 858.613 199.813 858.619 202.629L858.653 220.037C858.656 221.659 859.215 223.108 860.327 224.386C861.441 225.749 862.938 226.429 864.817 226.425L869.304 226.417L869.33 239.729L858.947 239.749C855.957 239.755 853.05 239.12 850.228 237.846C847.491 236.656 845.222 234.741 843.423 232.099C841.623 229.457 840.719 226.045 840.711 221.864L840.663 197.16C840.654 192.296 840.049 188.884 838.848 186.924C837.734 184.963 835.894 183.687 833.33 183.094L833.306 171.062C835.868 170.375 837.703 169.091 838.81 167.212C840.003 165.247 840.594 161.832 840.585 156.968L840.537 132.264C840.528 127.998 841.419 124.583 843.208 122.019C844.998 119.37 847.258 117.446 849.991 116.246C852.808 114.96 855.712 114.315 858.703 114.309L869.085 114.289L869.111 127.601L864.625 127.609C862.745 127.613 861.25 128.256 860.142 129.538C859.034 130.82 858.482 132.315 858.485 134.021Z" fill="#AFD9FF" fill-opacity="0.04"/>
<path d="M114.26 300.758L114.455 400.598L97.792 400.63L97.5972 300.791L114.26 300.758ZM162.849 371.064C162.862 377.549 161.548 383.098 158.907 387.711C156.268 392.325 152.771 395.83 148.418 398.228C144.15 400.626 139.538 401.829 134.582 401.839C129.711 401.848 125.35 400.619 121.501 398.152C117.735 395.685 114.738 392.149 112.507 387.546C110.276 382.942 109.154 377.483 109.142 371.168C109.13 364.768 110.23 359.305 112.443 354.778C114.656 350.166 117.639 346.618 121.394 344.136C125.235 341.654 129.591 340.408 134.461 340.399C139.417 340.389 144.035 341.575 148.312 343.956C152.675 346.337 156.185 349.829 158.842 354.432C161.501 358.949 162.836 364.493 162.849 371.064ZM145.673 371.097C145.666 367.599 144.934 364.571 143.476 362.013C142.019 359.456 140.049 357.497 137.569 356.137C135.173 354.776 132.523 354.099 129.618 354.104C127.139 354.109 124.705 354.797 122.316 356.167C120.01 357.451 118.092 359.375 116.559 361.938C115.111 364.501 114.391 367.574 114.398 371.158C114.405 374.742 115.137 377.813 116.595 380.37C118.138 382.927 120.065 384.886 122.374 386.247C124.769 387.522 127.205 388.157 129.684 388.152C132.589 388.147 135.237 387.459 137.627 386.089C140.102 384.719 142.064 382.752 143.512 380.189C144.959 377.627 145.68 374.596 145.673 371.097Z" fill="#AFD9FF" fill-opacity="0.04"/>
<path d="M187.04 382.153C187.043 383.859 187.473 385.352 188.33 386.63C189.187 387.823 190.343 388.76 191.797 389.439C193.336 390.034 195.002 390.329 196.797 390.326C199.36 390.321 201.667 389.804 203.716 388.776C205.764 387.663 207.428 386.124 208.705 384.159C209.983 382.108 210.62 379.675 210.614 376.859L212.68 384.535C212.688 388.289 211.625 391.449 209.495 394.013C207.449 396.577 204.76 398.502 201.43 399.789C198.186 401.075 194.769 401.722 191.18 401.729C187.505 401.736 184.086 401.017 180.921 399.573C177.757 398.128 175.189 396.042 173.218 393.316C171.333 390.503 170.386 387.092 170.378 383.081C170.367 377.364 172.367 372.837 176.377 369.501C180.386 366.166 186.065 364.491 193.414 364.476C197.174 364.469 200.465 364.847 203.286 365.609C206.193 366.371 208.63 367.305 210.598 368.411C212.566 369.516 213.978 370.58 214.834 371.603L214.849 379.283C212.539 377.58 209.93 376.305 207.023 375.458C204.201 374.61 201.209 374.189 198.048 374.195C195.484 374.2 193.391 374.546 191.769 375.232C190.147 375.832 188.952 376.73 188.185 377.926C187.418 379.037 187.036 380.446 187.04 382.153ZM180.584 358.229L174.41 346.977C177.483 345.35 181.239 343.807 185.681 342.347C190.121 340.803 195.076 340.025 200.544 340.014C205.586 340.005 210.073 340.721 214.008 342.164C217.941 343.607 221.022 345.735 223.249 348.546C225.476 351.273 226.593 354.641 226.601 358.652L226.682 400.38L210.66 400.411L210.586 362.139C210.582 360.518 210.324 359.153 209.809 358.044C209.293 356.851 208.48 355.871 207.368 355.105C206.34 354.339 205.1 353.787 203.647 353.448C202.193 353.11 200.57 352.942 198.776 352.946C196.041 352.951 193.435 353.255 190.958 353.857C188.481 354.459 186.346 355.189 184.554 356.046C182.76 356.902 181.438 357.63 180.584 358.229Z" fill="#AFD9FF" fill-opacity="0.04"/>
<path d="M254.63 370.885C254.636 374.298 255.411 377.284 256.954 379.841C258.498 382.398 260.552 384.399 263.119 385.845C265.771 387.29 268.678 388.01 271.839 388.004C274.403 387.999 276.88 387.61 279.271 386.837C281.663 385.979 283.797 384.866 285.673 383.497C287.636 382.042 289.128 380.375 290.15 378.496L290.183 395.52C288.136 397.401 285.447 398.9 282.117 400.016C278.872 401.046 275.071 401.565 270.712 401.574C264.474 401.586 258.832 400.317 253.785 397.767C248.824 395.216 244.886 391.64 241.972 387.038C239.143 382.35 237.723 376.977 237.711 370.918C237.699 364.774 239.098 359.395 241.909 354.782C244.806 350.168 248.729 346.577 253.68 344.007C258.717 341.437 264.354 340.146 270.592 340.134C274.95 340.126 278.754 340.673 282.003 341.776C285.338 342.793 288.032 344.196 290.086 345.984L290.119 363.008C289.091 361.133 287.55 359.514 285.496 358.153C283.527 356.706 281.346 355.601 278.952 354.838C276.559 354.074 274.165 353.695 271.772 353.7C268.611 353.706 265.707 354.48 263.061 356.021C260.5 357.476 258.452 359.486 256.919 362.049C255.386 364.612 254.623 367.557 254.63 370.885Z" fill="#AFD9FF" fill-opacity="0.04"/>
<path d="M304.258 300.388L320.28 300.357L320.475 400.197L304.453 400.228L304.258 300.388ZM342.022 341.275L361.89 341.236L336.559 365.606L364.569 400.111L344.829 400.15L316.691 365.644L342.022 341.275Z" fill="#AFD9FF" fill-opacity="0.04"/>
<path d="M368.618 404.199L384.897 404.168C384.987 406.727 385.675 408.902 386.961 410.692C388.245 412.566 390 414.014 392.224 415.033C394.448 416.053 397.055 416.56 400.046 416.554C402.781 416.549 405.342 415.904 407.733 414.619C410.208 413.334 412.17 411.368 413.618 408.72C415.151 406.071 415.913 402.742 415.905 398.731L415.793 341.131L431.815 341.1L431.927 398.7C431.941 405.953 430.5 411.93 427.604 416.629C424.793 421.327 420.998 424.748 416.216 426.891C411.436 429.119 406.225 430.238 400.586 430.249C393.749 430.262 388.022 429.164 383.403 426.955C378.784 424.83 375.232 421.765 372.746 417.759C370.346 413.839 368.97 409.319 368.618 404.199ZM367.398 370.154C367.386 363.583 368.699 358.076 371.339 353.634C373.98 349.106 377.477 345.686 381.83 343.374C386.184 341.061 390.796 339.9 395.667 339.891C400.623 339.881 404.983 341.067 408.748 343.449C412.597 345.831 415.595 349.281 417.74 353.8C419.97 358.233 421.092 363.649 421.104 370.049C421.117 376.364 420.017 381.785 417.803 386.312C415.677 390.838 412.692 394.3 408.851 396.697C405.096 399.008 400.74 400.169 395.784 400.178C390.913 400.188 386.297 399.045 381.934 396.749C377.572 394.454 374.062 391.09 371.404 386.658C368.746 382.14 367.411 376.639 367.398 370.154ZM384.573 370.12C384.58 373.619 385.312 376.604 386.77 379.076C388.227 381.462 390.196 383.293 392.678 384.568C395.158 385.844 397.808 386.479 400.628 386.473C403.106 386.468 405.497 385.866 407.803 384.667C410.193 383.382 412.112 381.544 413.56 379.152C415.093 376.674 415.856 373.643 415.849 370.059C415.844 367.329 415.412 364.94 414.553 362.894C413.695 360.848 412.495 359.143 410.954 357.781C409.499 356.418 407.874 355.398 406.077 354.718C404.282 353.954 402.444 353.573 400.564 353.577C397.744 353.583 395.096 354.228 392.621 355.513C390.145 356.797 388.183 358.679 386.735 361.156C385.287 363.548 384.566 366.536 384.573 370.12Z" fill="#AFD9FF" fill-opacity="0.04"/>
<path d="M464.2 341.037L464.315 399.917L448.036 399.949L447.921 341.069L464.2 341.037ZM481.538 358.283C480.424 357.262 479.27 356.496 478.072 355.986C476.961 355.391 475.55 355.095 473.84 355.098C471.789 355.102 470.039 355.661 468.589 356.773C467.138 357.885 466.03 359.466 465.265 361.515C464.585 363.479 464.248 365.869 464.254 368.685L459.631 364.086C459.622 359.393 460.511 355.252 462.298 351.665C464.085 347.992 466.429 345.086 469.331 342.947C472.232 340.723 475.22 339.608 478.296 339.602C480.433 339.598 482.442 339.978 484.323 340.742C486.29 341.506 487.873 342.655 489.072 344.189L481.538 358.283Z" fill="#AFD9FF" fill-opacity="0.04"/>
<path d="M492.071 370.423C492.059 364.279 493.459 358.9 496.27 354.287C499.166 349.673 503.048 346.082 507.913 343.512C512.864 340.942 518.459 339.652 524.697 339.639C530.935 339.627 536.492 340.897 541.368 343.447C546.329 345.997 550.224 349.574 553.053 354.176C555.967 358.779 557.43 364.152 557.442 370.296C557.454 376.354 556.012 381.733 553.116 386.432C550.305 391.046 546.424 394.637 541.473 397.207C536.607 399.776 531.055 401.067 524.817 401.079C518.579 401.091 512.979 399.822 508.019 397.272C503.143 394.722 499.247 391.145 496.333 386.543C493.504 381.855 492.084 376.482 492.071 370.423ZM508.991 370.39C508.998 373.718 509.687 376.661 511.059 379.218C512.517 381.69 514.444 383.649 516.839 385.095C519.234 386.456 521.885 387.133 524.79 387.127C527.695 387.122 530.343 386.434 532.733 385.064C535.122 383.609 536.999 381.642 538.361 379.165C539.809 376.602 540.53 373.657 540.523 370.329C540.517 367.001 539.785 364.058 538.327 361.501C536.955 358.944 535.07 356.985 532.675 355.624C530.279 354.263 527.63 353.586 524.725 353.591C521.819 353.597 519.171 354.285 516.782 355.655C514.391 357.025 512.473 358.991 511.025 361.554C509.663 364.117 508.985 367.062 508.991 370.39Z" fill="#AFD9FF" fill-opacity="0.04"/>
<path d="M587.086 376.638C587.093 380.478 587.868 383.463 589.411 385.594C590.953 387.639 593.433 388.658 596.851 388.651C599.243 388.646 601.293 388.173 603 387.231C604.793 386.204 606.158 384.793 607.094 382.999C608.115 381.205 608.624 379.071 608.62 376.596L608.55 340.756L625.085 340.724L625.199 399.604L608.664 399.636L608.647 390.676C606.774 394.008 604.386 396.572 601.484 398.37C598.582 400.082 595.037 400.943 590.85 400.951C583.844 400.964 578.584 398.969 575.073 394.966C571.647 390.962 569.927 385.461 569.913 378.464L569.84 340.832L587.016 340.798L587.086 376.638Z" fill="#AFD9FF" fill-opacity="0.04"/>
<path d="M679.552 363.658C679.545 359.733 678.77 356.748 677.228 354.703C675.686 352.658 673.206 351.638 669.788 351.645C667.481 351.65 665.431 352.166 663.638 353.193C661.846 354.135 660.481 355.503 659.545 357.297C658.608 359.091 658.143 361.225 658.147 363.7L658.217 399.54L641.554 399.572L641.44 340.692L658.103 340.66L658.12 349.62C659.908 346.288 662.253 343.766 665.155 342.054C668.142 340.256 671.73 339.353 675.916 339.345C682.923 339.331 688.14 341.327 691.566 345.331C694.992 349.249 696.711 354.75 696.725 361.833L696.798 399.465L679.623 399.498L679.552 363.658Z" fill="#AFD9FF" fill-opacity="0.04"/>
<path d="M757.436 299.506L774.1 299.474L774.294 399.314L757.631 399.346L757.436 299.506ZM709.122 370.001C709.109 363.43 710.423 357.881 713.063 353.353C715.704 348.74 719.2 345.234 723.553 342.836C727.907 340.439 732.519 339.235 737.39 339.225C742.346 339.216 746.707 340.445 750.471 342.912C754.321 345.379 757.319 348.915 759.464 353.519C761.694 358.037 762.816 363.496 762.829 369.896C762.841 376.211 761.74 381.674 759.528 386.286C757.4 390.899 754.417 394.446 750.576 396.928C746.822 399.41 742.466 400.656 737.51 400.665C732.639 400.675 728.022 399.489 723.66 397.108C719.297 394.727 715.787 391.236 713.128 386.633C710.47 382.03 709.134 376.486 709.122 370.001ZM726.298 369.967C726.305 373.466 727.037 376.494 728.494 379.051C729.952 381.608 731.922 383.567 734.403 384.927C736.883 386.288 739.534 386.965 742.354 386.96C744.832 386.955 747.223 386.31 749.528 385.026C751.918 383.656 753.837 381.69 755.285 379.127C756.818 376.564 757.581 373.49 757.574 369.906C757.567 366.322 756.792 363.252 755.248 360.695C753.79 358.138 751.864 356.221 749.469 354.946C747.159 353.585 744.765 352.907 742.287 352.912C739.468 352.917 736.82 353.605 734.344 354.975C731.869 356.346 729.907 358.312 728.459 360.875C727.011 363.438 726.291 366.468 726.298 369.967Z" fill="#AFD9FF" fill-opacity="0.04"/>
<path d="M791.623 309.68L810.209 309.644L810.384 399.244L791.798 399.28L791.623 309.68Z" fill="#AFD9FF" fill-opacity="0.04"/>
<path d="M915.274 361.407L915.349 399.039L898.685 399.072L898.615 363.232C898.607 359.221 897.918 356.236 896.547 354.276C895.176 352.23 892.953 351.211 889.876 351.217C887.825 351.221 886.031 351.694 884.495 352.635C882.959 353.492 881.765 354.859 880.914 356.738C880.063 358.532 879.64 360.709 879.645 363.269L879.715 399.109L863.18 399.141L863.11 363.301C863.102 359.29 862.413 356.305 861.042 354.345C859.67 352.3 857.447 351.28 854.371 351.286C852.32 351.29 850.527 351.763 848.99 352.704C847.453 353.561 846.26 354.928 845.409 356.807C844.558 358.601 844.135 360.778 844.14 363.338L844.21 399.178L828.188 399.209L828.073 340.329L844.095 340.298L844.112 349.002C845.815 345.756 848.074 343.277 850.891 341.565C853.707 339.852 857.081 338.993 861.012 338.985C865.37 338.976 868.96 339.823 871.784 341.524C874.607 343.225 876.663 345.738 877.951 349.064C880.081 345.732 882.682 343.209 885.755 341.497C888.914 339.784 892.501 338.924 896.517 338.916C900.875 338.907 904.423 339.796 907.161 341.583C909.899 343.284 911.912 345.841 913.201 349.251C914.574 352.577 915.265 356.629 915.274 361.407Z" fill="#AFD9FF" fill-opacity="0.04"/>
<path d="M943.462 380.68C943.465 382.387 943.896 383.88 944.753 385.158C945.609 386.351 946.765 387.287 948.219 387.967C949.758 388.562 951.426 388.857 953.22 388.854C955.784 388.849 958.09 388.332 960.139 387.304C962.187 386.191 963.851 384.651 965.129 382.686C966.406 380.636 967.042 378.203 967.037 375.387L969.103 383.063C969.11 386.817 968.049 389.977 965.917 392.541C963.871 395.105 961.183 397.03 957.852 398.317C954.608 399.603 951.191 400.249 947.602 400.256C943.928 400.264 940.508 399.545 937.344 398.1C934.18 396.656 931.612 394.57 929.641 391.843C927.756 389.031 926.809 385.62 926.801 381.609C926.79 375.892 928.789 371.365 932.799 368.029C936.809 364.693 942.488 363.018 949.837 363.004C953.597 362.997 956.887 363.374 959.709 364.137C962.616 364.899 965.053 365.833 967.02 366.939C968.988 368.044 970.4 369.108 971.257 370.13L971.271 377.81C968.961 376.108 966.352 374.833 963.445 373.986C960.623 373.138 957.632 372.717 954.471 372.723C951.907 372.728 949.814 373.073 948.192 373.759C946.569 374.36 945.375 375.258 944.608 376.454C943.841 377.565 943.459 378.974 943.462 380.68ZM937.007 356.757L930.833 345.505C933.905 343.878 937.662 342.334 942.104 340.875C946.544 339.33 951.499 338.553 956.967 338.542C962.009 338.532 966.496 339.249 970.43 340.692C974.363 342.135 977.445 344.262 979.672 347.074C981.899 349.8 983.016 353.169 983.023 357.179L983.105 398.907L967.083 398.939L967.008 360.667C967.005 359.045 966.746 357.68 966.231 356.572C965.716 355.378 964.902 354.399 963.79 353.633C962.763 352.867 961.523 352.315 960.07 351.976C958.616 351.638 956.992 351.47 955.198 351.474C952.464 351.479 949.857 351.783 947.381 352.385C944.904 352.987 942.77 353.716 940.976 354.573C939.184 355.43 937.861 356.158 937.007 356.757Z" fill="#AFD9FF" fill-opacity="0.04"/>
<path d="M995.737 402.979L1012.01 402.947C1012.1 405.507 1012.79 407.682 1014.08 409.471C1015.37 411.346 1017.12 412.793 1019.34 413.813C1021.57 414.833 1024.17 415.339 1027.16 415.334C1029.9 415.328 1032.46 414.683 1034.86 413.399C1037.33 412.114 1039.29 410.147 1040.73 407.499C1042.27 404.851 1043.03 401.521 1043.03 397.511L1042.91 339.911L1058.93 339.88L1059.05 397.48C1059.06 404.733 1057.62 410.709 1054.72 415.408C1051.91 420.107 1048.11 423.528 1043.34 425.67C1038.55 427.898 1033.34 429.018 1027.71 429.029C1020.87 429.042 1015.14 427.944 1010.52 425.734C1005.91 423.61 1002.35 420.545 999.865 416.539C997.464 412.618 996.088 408.098 995.737 402.979ZM994.516 368.933C994.503 362.362 995.817 356.856 998.458 352.413C1001.1 347.886 1004.59 344.465 1008.95 342.153C1013.31 339.84 1017.91 338.679 1022.79 338.67C1027.75 338.66 1032.1 339.847 1035.87 342.229C1039.71 344.61 1042.72 348.061 1044.86 352.579C1047.09 357.012 1048.21 362.429 1048.22 368.829C1048.23 375.143 1047.13 380.564 1044.92 385.091C1042.8 389.618 1039.81 393.08 1035.97 395.476C1032.21 397.788 1027.86 398.948 1022.9 398.958C1018.03 398.967 1013.42 397.824 1009.05 395.529C1004.69 393.233 1001.18 389.87 998.523 385.437C995.864 380.92 994.529 375.418 994.516 368.933ZM1011.69 368.9C1011.7 372.398 1012.43 375.384 1013.89 377.855C1015.35 380.242 1017.31 382.073 1019.79 383.348C1022.28 384.623 1024.93 385.258 1027.75 385.252C1030.23 385.248 1032.61 384.646 1034.93 383.447C1037.31 382.162 1039.23 380.323 1040.67 377.931C1042.22 375.454 1042.98 372.423 1042.97 368.839C1042.97 366.108 1042.53 363.72 1041.67 361.673C1040.81 359.627 1039.61 357.923 1038.07 356.56C1036.62 355.198 1035 354.177 1033.19 353.498C1031.4 352.733 1029.56 352.353 1027.69 352.357C1024.86 352.362 1022.22 353.007 1019.73 354.292C1017.26 355.577 1015.3 357.458 1013.86 359.935C1012.4 362.328 1011.68 365.316 1011.69 368.9Z" fill="#AFD9FF" fill-opacity="0.04"/>
<path d="M1102.97 399.954C1096.56 399.967 1090.96 398.697 1086.18 396.147C1081.38 393.596 1077.65 390.062 1075 385.544C1072.43 380.941 1071.14 375.525 1071.13 369.296C1071.12 362.981 1072.39 357.56 1074.94 353.033C1077.57 348.419 1081.29 344.871 1086.07 342.387C1090.85 339.818 1096.48 338.527 1102.98 338.514C1109.48 338.501 1114.99 339.685 1119.52 342.066C1124.14 344.361 1127.65 347.767 1130.06 352.285C1132.45 356.718 1133.66 362.092 1133.67 368.406C1133.67 369.174 1133.63 369.985 1133.55 370.839C1133.55 371.692 1133.51 372.375 1133.42 372.887L1080.62 372.99L1080.6 362.75L1118.92 362.675L1114.45 368.572C1114.79 368.059 1115.09 367.376 1115.34 366.522C1115.68 365.583 1115.85 364.814 1115.85 364.217C1115.84 361.316 1115.29 358.842 1114.17 356.796C1113.13 354.75 1111.64 353.132 1109.67 351.941C1107.71 350.75 1105.39 350.157 1102.75 350.162C1099.49 350.169 1096.76 350.899 1094.55 352.354C1092.42 353.724 1090.75 355.818 1089.56 358.636C1088.46 361.369 1087.86 364.783 1087.79 368.88C1087.8 372.805 1088.36 376.132 1089.47 378.86C1090.67 381.589 1092.43 383.676 1094.74 385.122C1097.05 386.568 1099.83 387.288 1103.08 387.282C1106.75 387.275 1109.87 386.586 1112.43 385.216C1115.08 383.76 1117.25 381.622 1118.95 378.803L1133.44 383.255C1130.38 388.807 1126.28 392.997 1121.17 395.823C1116.13 398.563 1110.06 399.94 1102.97 399.954Z" fill="#AFD9FF" fill-opacity="0.04"/>
<path d="M1147.77 391.035C1147.77 388.134 1148.75 385.7 1150.71 383.733C1152.76 381.681 1155.27 380.652 1158.27 380.646C1161.34 380.64 1163.86 381.66 1165.84 383.704C1167.8 385.663 1168.79 388.093 1168.8 390.994C1168.8 393.725 1167.83 396.116 1165.87 398.168C1163.9 400.219 1161.38 401.248 1158.31 401.254C1155.31 401.26 1152.79 400.241 1150.74 398.197C1148.77 396.153 1147.78 393.766 1147.77 391.035ZM1147.68 342.907C1147.68 340.091 1148.65 337.657 1150.62 335.605C1152.66 333.553 1155.18 332.524 1158.18 332.519C1161.25 332.513 1163.77 333.532 1165.74 335.576C1167.71 337.62 1168.7 340.05 1168.7 342.866C1168.71 345.682 1167.73 348.116 1165.77 350.168C1163.8 352.22 1161.29 353.248 1158.22 353.254C1155.22 353.26 1152.7 352.241 1150.65 350.197C1148.67 348.153 1147.69 345.723 1147.68 342.907Z" fill="#AFD9FF" fill-opacity="0.04"/>
<path d="M1224.44 314.47L1237.63 308.3L1256.89 328.742L1247.55 333.625L1224.44 314.47Z" fill="#AFD9FF" fill-opacity="0.04"/>
<path d="M1283.93 375.282C1283.93 379.122 1284.71 382.107 1286.25 384.237C1287.8 386.282 1290.27 387.302 1293.69 387.295C1296.09 387.29 1298.13 386.817 1299.84 385.875C1301.64 384.847 1303 383.437 1303.94 381.643C1304.96 379.849 1305.46 377.715 1305.46 375.24L1305.39 339.4L1321.92 339.368L1322.04 398.248L1305.5 398.28L1305.49 389.32C1303.62 392.652 1301.22 395.216 1298.32 397.014C1295.43 398.726 1291.88 399.586 1287.69 399.595C1280.69 399.608 1275.43 397.613 1271.91 393.609C1268.49 389.605 1266.77 384.105 1266.76 377.107L1266.68 339.475L1283.86 339.442L1283.93 375.282Z" fill="#AFD9FF" fill-opacity="0.04"/>
<path d="M1354.56 339.304L1354.67 398.184L1338.4 398.216L1338.28 339.336L1354.56 339.304ZM1371.89 356.551C1370.78 355.529 1369.63 354.763 1368.43 354.253C1367.32 353.658 1365.9 353.362 1364.2 353.366C1362.15 353.37 1360.4 353.928 1358.94 355.04C1357.49 356.152 1356.39 357.733 1355.62 359.782C1354.94 361.746 1354.61 364.136 1354.61 366.952L1349.99 362.353C1349.98 357.66 1350.86 353.52 1352.66 349.932C1354.44 346.259 1356.79 343.353 1359.69 341.214C1362.59 338.99 1365.57 337.875 1368.66 337.869C1370.79 337.865 1372.8 338.245 1374.68 339.009C1376.65 339.773 1378.23 340.922 1379.43 342.456L1371.89 356.551Z" fill="#AFD9FF" fill-opacity="0.04"/>
<path d="M1388.15 298.279L1404.81 298.246L1405 398.086L1388.34 398.119L1388.15 298.279Z" fill="#AFD9FF" fill-opacity="0.04"/>
<path d="M1437.85 298.182L1452.98 298.153C1448.55 307.719 1445.19 317.837 1442.91 328.508C1440.63 339.179 1439.5 349.976 1439.52 360.899C1439.54 371.736 1440.71 382.486 1443.04 393.148C1445.36 403.81 1448.76 413.958 1453.23 423.592L1438.09 423.622C1432.95 413.989 1429.08 403.842 1426.5 393.18C1424.01 382.519 1422.74 371.769 1422.72 360.932C1422.7 350.009 1423.91 339.212 1426.38 328.54C1428.92 317.869 1432.75 307.749 1437.85 298.182Z" fill="#AFD9FF" fill-opacity="0.04"/>
<path d="M114.621 485.758L114.816 585.598L98.153 585.63L97.9583 485.79L114.621 485.758ZM163.209 556.063C163.222 562.549 161.909 568.098 159.269 572.711C156.629 577.324 153.132 580.83 148.778 583.228C144.51 585.625 139.899 586.829 134.942 586.839C130.071 586.848 125.711 585.619 121.861 583.152C118.097 580.685 115.099 577.149 112.868 572.545C110.637 567.942 109.516 562.483 109.504 556.168C109.491 549.768 110.591 544.304 112.804 539.777C115.017 535.165 118.001 531.618 121.756 529.136C125.596 526.654 129.952 525.408 134.823 525.399C139.779 525.389 144.395 526.575 148.673 528.956C153.035 531.337 156.546 534.828 159.204 539.431C161.861 543.949 163.197 549.493 163.209 556.063ZM146.034 556.097C146.028 552.598 145.295 549.57 143.837 547.013C142.379 544.456 140.411 542.497 137.929 541.137C135.534 539.776 132.884 539.098 129.978 539.104C127.501 539.109 125.066 539.796 122.676 541.166C120.372 542.451 118.453 544.375 116.92 546.938C115.472 549.5 114.752 552.574 114.759 556.158C114.766 559.742 115.498 562.812 116.955 565.369C118.498 567.926 120.425 569.885 122.735 571.246C125.131 572.522 127.567 573.157 130.045 573.152C132.95 573.146 135.598 572.459 137.988 571.089C140.464 569.718 142.426 567.752 143.873 565.189C145.321 562.626 146.041 559.596 146.034 556.097Z" fill="#AFD9FF" fill-opacity="0.04"/>
<path d="M187.401 567.152C187.404 568.859 187.835 570.352 188.692 571.63C189.548 572.823 190.704 573.759 192.158 574.439C193.697 575.033 195.364 575.329 197.158 575.325C199.722 575.32 202.028 574.804 204.077 573.776C206.126 572.663 207.789 571.123 209.067 569.158C210.345 567.108 210.981 564.674 210.976 561.858L213.041 569.534C213.049 573.289 211.987 576.449 209.855 579.013C207.809 581.577 205.121 583.502 201.792 584.788C198.546 586.075 195.13 586.721 191.541 586.728C187.867 586.735 184.447 586.017 181.282 584.572C178.118 583.128 175.55 581.042 173.58 578.315C171.694 575.503 170.748 572.091 170.74 568.081C170.729 562.363 172.728 557.837 176.737 554.501C180.748 551.165 186.427 549.49 193.776 549.476C197.535 549.469 200.826 549.846 203.647 550.609C206.554 551.371 208.992 552.305 210.959 553.41C212.926 554.516 214.338 555.58 215.195 556.602L215.21 564.282C212.899 562.58 210.291 561.305 207.384 560.457C204.562 559.61 201.571 559.189 198.409 559.195C195.846 559.2 193.753 559.545 192.13 560.231C190.507 560.832 189.314 561.73 188.547 562.926C187.779 564.037 187.398 565.446 187.401 567.152ZM180.945 543.229L174.771 531.977C177.844 530.35 181.601 528.806 186.042 527.347C190.482 525.802 195.437 525.025 200.906 525.014C205.948 525.004 210.435 525.721 214.368 527.164C218.302 528.607 221.383 530.734 223.61 533.546C225.837 536.272 226.955 539.641 226.962 543.651L227.044 585.379L211.022 585.41L210.947 547.138C210.944 545.517 210.684 544.152 210.17 543.044C209.655 541.85 208.841 540.871 207.728 540.105C206.702 539.339 205.462 538.787 204.008 538.448C202.555 538.109 200.931 537.942 199.136 537.945C196.402 537.951 193.796 538.255 191.319 538.857C188.842 539.459 186.708 540.188 184.914 541.045C183.122 541.902 181.799 542.63 180.945 543.229Z" fill="#AFD9FF" fill-opacity="0.04"/>
<path d="M254.991 555.885C254.998 559.298 255.773 562.283 257.316 564.84C258.859 567.397 260.914 569.399 263.479 570.844C266.132 572.29 269.038 573.01 272.201 573.003C274.764 572.998 277.242 572.61 279.632 571.837C282.023 570.979 284.157 569.865 286.035 568.496C287.997 567.042 289.49 565.375 290.511 563.496L290.544 580.52C288.497 582.401 285.808 583.9 282.478 585.015C279.232 586.046 275.431 586.565 271.073 586.574C264.835 586.586 259.193 585.317 254.147 582.766C249.185 580.216 245.247 576.64 242.333 572.037C239.504 567.35 238.083 561.976 238.071 555.918C238.059 549.774 239.459 544.395 242.27 539.781C245.166 535.168 249.09 531.576 254.041 529.007C259.078 526.437 264.715 525.146 270.953 525.134C275.311 525.125 279.115 525.672 282.365 526.775C285.699 527.793 288.393 529.196 290.448 530.984L290.481 548.008C289.451 546.132 287.91 544.514 285.857 543.153C283.889 541.706 281.708 540.601 279.313 539.837C276.919 539.074 274.526 538.695 272.133 538.699C268.971 538.706 266.068 539.479 263.421 541.02C260.861 542.476 258.814 544.485 257.281 547.048C255.748 549.611 254.985 552.557 254.991 555.885Z" fill="#AFD9FF" fill-opacity="0.04"/>
<path d="M304.619 485.388L320.642 485.357L320.837 585.197L304.815 585.228L304.619 485.388ZM342.384 526.275L362.251 526.236L336.919 550.605L364.929 585.111L345.19 585.149L317.052 550.644L342.384 526.275Z" fill="#AFD9FF" fill-opacity="0.04"/>
<path d="M368.979 589.199L385.257 589.167C385.348 591.727 386.036 593.902 387.321 595.691C388.607 597.566 390.361 599.013 392.586 600.033C394.809 601.053 397.416 601.56 400.407 601.554C403.141 601.549 405.704 600.904 408.094 599.619C410.569 598.334 412.531 596.368 413.978 593.719C415.511 591.071 416.274 587.742 416.266 583.731L416.154 526.131L432.176 526.1L432.289 583.7C432.303 590.953 430.862 596.929 427.966 601.628C425.155 606.327 421.358 609.748 416.578 611.89C411.796 614.118 406.586 615.238 400.946 615.249C394.111 615.262 388.383 614.164 383.764 611.954C379.146 609.83 375.593 606.765 373.108 602.759C370.707 598.838 369.331 594.318 368.979 589.199ZM367.759 555.153C367.746 548.583 369.06 543.076 371.701 538.634C374.34 534.106 377.837 530.686 382.191 528.373C386.544 526.061 391.157 524.9 396.027 524.89C400.983 524.881 405.344 526.067 409.108 528.449C412.959 530.831 415.956 534.281 418.101 538.799C420.332 543.232 421.453 548.649 421.466 555.049C421.478 561.363 420.377 566.784 418.165 571.311C416.037 575.838 413.053 579.3 409.213 581.697C405.457 584.008 401.101 585.168 396.145 585.178C391.275 585.188 386.657 584.045 382.295 581.749C377.932 579.454 374.422 576.09 371.765 571.658C369.107 567.14 367.772 561.639 367.759 555.153ZM384.935 555.12C384.942 558.619 385.674 561.604 387.131 564.076C388.589 566.462 390.558 568.293 393.038 569.568C395.519 570.843 398.169 571.478 400.989 571.473C403.468 571.468 405.859 570.866 408.163 569.667C410.553 568.382 412.473 566.544 413.921 564.151C415.454 561.674 416.217 558.643 416.21 555.059C416.205 552.328 415.773 549.94 414.914 547.893C414.056 545.847 412.857 544.143 411.316 542.781C409.86 541.418 408.234 540.397 406.439 539.718C404.643 538.954 402.805 538.573 400.925 538.577C398.105 538.582 395.458 539.227 392.982 540.512C390.506 541.797 388.544 543.678 387.097 546.156C385.649 548.548 384.928 551.536 384.935 555.12Z" fill="#AFD9FF" fill-opacity="0.04"/>
<path d="M464.561 526.037L464.676 584.917L448.397 584.948L448.283 526.069L464.561 526.037ZM481.898 543.283C480.786 542.261 479.63 541.496 478.434 540.986C477.321 540.391 475.911 540.095 474.202 540.098C472.151 540.102 470.4 540.66 468.949 541.772C467.499 542.884 466.391 544.465 465.626 546.515C464.947 548.479 464.609 550.869 464.614 553.685L459.991 549.086C459.982 544.392 460.871 540.252 462.659 536.665C464.446 532.992 466.79 530.086 469.691 527.947C472.592 525.723 475.582 524.607 478.658 524.601C480.794 524.597 482.803 524.977 484.684 525.742C486.651 526.506 488.234 527.655 489.434 529.188L481.898 543.283Z" fill="#AFD9FF" fill-opacity="0.04"/>
<path d="M492.433 555.423C492.421 549.279 493.82 543.9 496.631 539.286C499.528 534.673 503.408 531.081 508.274 528.512C513.226 525.942 518.821 524.651 525.058 524.639C531.296 524.627 536.853 525.896 541.728 528.447C546.69 530.997 550.585 534.573 553.414 539.176C556.329 543.778 557.792 549.151 557.804 555.295C557.815 561.354 556.373 566.733 553.477 571.432C550.666 576.045 546.784 579.637 541.833 582.207C536.968 584.776 531.416 586.067 525.178 586.079C518.94 586.091 513.341 584.822 508.379 582.272C503.503 579.721 499.609 576.145 496.694 571.542C493.865 566.855 492.445 561.481 492.433 555.423ZM509.352 555.39C509.358 558.718 510.048 561.66 511.42 564.218C512.877 566.69 514.804 568.648 517.199 570.094C519.595 571.455 522.245 572.133 525.15 572.127C528.056 572.121 530.704 571.434 533.093 570.064C535.484 568.608 537.359 566.642 538.722 564.165C540.17 561.602 540.89 558.656 540.884 555.328C540.877 552 540.145 549.058 538.687 546.501C537.315 543.943 535.432 541.984 533.036 540.624C530.641 539.263 527.99 538.585 525.085 538.591C522.18 538.597 519.533 539.285 517.142 540.655C514.752 542.025 512.833 543.991 511.386 546.554C510.023 549.116 509.345 552.062 509.352 555.39Z" fill="#AFD9FF" fill-opacity="0.04"/>
<path d="M587.447 561.638C587.455 565.478 588.229 568.463 589.772 570.593C591.314 572.638 593.794 573.657 597.212 573.651C599.605 573.646 601.654 573.173 603.362 572.231C605.154 571.203 606.518 569.793 607.455 567.999C608.477 566.205 608.986 564.07 608.981 561.596L608.91 525.756L625.445 525.724L625.561 584.604L609.026 584.636L609.009 575.676C607.135 579.007 604.747 581.572 601.845 583.37C598.943 585.082 595.399 585.942 591.211 585.95C584.204 585.964 578.945 583.969 575.434 579.965C572.008 575.961 570.288 570.461 570.275 563.463L570.201 525.831L587.377 525.798L587.447 561.638Z" fill="#AFD9FF" fill-opacity="0.04"/>
<path d="M679.914 548.658C679.906 544.732 679.132 541.747 677.59 539.702C676.048 537.657 673.567 536.638 670.149 536.645C667.842 536.649 665.792 537.165 664 538.193C662.206 539.135 660.843 540.503 659.906 542.297C658.969 544.091 658.503 546.225 658.508 548.699L658.578 584.539L641.915 584.572L641.8 525.692L658.463 525.659L658.481 534.619C660.269 531.288 662.614 528.766 665.516 527.054C668.503 525.256 672.09 524.353 676.278 524.345C683.285 524.331 688.501 526.326 691.927 530.33C695.352 534.249 697.073 539.75 697.086 546.832L697.16 584.464L679.984 584.498L679.914 548.658Z" fill="#AFD9FF" fill-opacity="0.04"/>
<path d="M757.797 484.506L774.46 484.474L774.655 584.313L757.992 584.346L757.797 484.506ZM709.483 555C709.471 548.43 710.784 542.88 713.425 538.353C716.064 533.739 719.561 530.234 723.914 527.836C728.268 525.438 732.88 524.235 737.75 524.225C742.707 524.216 747.067 525.444 750.832 527.912C754.682 530.379 757.68 533.914 759.825 538.518C762.056 543.037 763.178 548.496 763.19 554.896C763.203 561.21 762.102 566.674 759.889 571.286C757.762 575.898 754.778 579.445 750.938 581.928C747.182 584.41 742.827 585.655 737.87 585.665C733 585.675 728.383 584.489 724.02 582.108C719.658 579.727 716.147 576.235 713.49 571.632C710.832 567.03 709.496 561.486 709.483 555ZM726.659 554.967C726.666 558.465 727.398 561.493 728.856 564.051C730.314 566.608 732.283 568.567 734.764 569.927C737.245 571.288 739.895 571.965 742.715 571.96C745.193 571.955 747.584 571.31 749.889 570.026C752.278 568.656 754.198 566.689 755.645 564.126C757.178 561.563 757.941 558.49 757.934 554.906C757.927 551.322 757.152 548.251 755.609 545.694C754.152 543.137 752.225 541.221 749.83 539.946C747.521 538.585 745.127 537.907 742.648 537.912C739.828 537.917 737.18 538.605 734.705 539.975C732.23 541.345 730.268 543.312 728.821 545.875C727.373 548.437 726.653 551.468 726.659 554.967Z" fill="#AFD9FF" fill-opacity="0.04"/>
<path d="M799.919 554.184C801.806 557.509 803.862 560.406 806.089 562.876C808.401 565.346 810.926 567.261 813.663 568.621C816.399 569.981 819.349 570.658 822.511 570.652C826.185 570.645 829.174 569.701 831.478 567.819C833.781 565.937 834.93 563.375 834.924 560.132C834.918 557.316 834.187 555.056 832.731 553.352C831.361 551.648 829.264 550.159 826.442 548.885C823.704 547.525 820.327 546.08 816.307 544.552C814.169 543.788 811.69 542.769 808.867 541.495C806.13 540.135 803.52 538.433 801.038 536.39C798.556 534.262 796.501 531.705 794.87 528.722C793.241 525.653 792.422 521.985 792.414 517.719C792.404 512.599 793.677 508.202 796.233 504.527C798.875 500.767 802.416 497.902 806.855 495.931C811.38 493.874 816.42 492.84 821.974 492.829C827.7 492.818 832.615 493.79 836.721 495.744C840.911 497.614 844.377 500.039 847.117 503.02C849.943 505.916 852.128 508.941 853.672 512.096L839.332 520.059C838.132 517.928 836.674 516.011 834.962 514.308C833.335 512.519 831.452 511.115 829.314 510.095C827.176 508.99 824.74 508.44 822.005 508.445C818.416 508.452 815.726 509.311 813.935 511.021C812.143 512.646 811.25 514.567 811.254 516.786C811.258 519.005 811.989 520.966 813.445 522.67C814.9 524.288 817.125 525.863 820.119 527.393C823.113 528.838 826.876 530.324 831.408 531.851C834.315 532.869 837.095 534.144 839.747 535.675C842.484 537.205 844.923 539.078 847.064 541.292C849.29 543.421 851.003 545.978 852.206 548.962C853.494 551.861 854.141 555.231 854.149 559.071C854.157 563.423 853.31 567.307 851.607 570.724C849.905 574.14 847.561 577.046 844.574 579.441C841.588 581.751 838.217 583.507 834.459 584.709C830.787 585.996 826.9 586.644 822.798 586.652C817.33 586.662 812.201 585.648 807.411 583.61C802.707 581.485 798.6 578.635 795.09 575.058C791.579 571.48 788.837 567.603 786.863 563.426L799.919 554.184Z" fill="#AFD9FF" fill-opacity="0.04"/>
<path d="M866.674 502.47C866.669 499.739 867.647 497.519 869.609 495.808C871.571 494.013 873.919 493.112 876.654 493.107C879.389 493.101 881.697 493.993 883.581 495.781C885.549 497.484 886.537 499.701 886.542 502.432C886.547 505.077 885.568 507.297 883.607 509.093C881.73 510.889 879.425 511.789 876.69 511.795C873.956 511.8 871.604 510.909 869.635 509.12C867.666 507.332 866.679 505.115 866.674 502.47ZM868.514 525.251L884.664 525.219L884.778 584.099L868.628 584.131L868.514 525.251Z" fill="#AFD9FF" fill-opacity="0.04"/>
<path d="M928.72 540.237L901.034 540.291L901.005 525.187L956.634 525.079L925.059 568.917L953.002 568.862L953.031 583.966L896.12 584.077L928.72 540.237Z" fill="#AFD9FF" fill-opacity="0.04"/>
<path d="M992.805 585.169C986.396 585.181 980.796 583.912 976.006 581.362C971.216 578.811 967.492 575.277 964.834 570.759C962.262 566.156 960.969 560.74 960.957 554.511C960.945 548.196 962.216 542.775 964.77 538.247C967.411 533.634 971.121 530.086 975.901 527.602C980.681 525.032 986.319 523.741 992.813 523.729C999.307 523.716 1004.82 524.9 1009.35 527.281C1013.98 529.576 1017.48 532.982 1019.88 537.5C1022.29 541.933 1023.49 547.306 1023.51 553.621C1023.51 554.389 1023.47 555.2 1023.38 556.053C1023.38 556.907 1023.34 557.589 1023.26 558.102L970.449 558.204L970.429 547.964L1008.76 547.89L1004.28 553.786C1004.62 553.274 1004.91 552.591 1005.17 551.737C1005.51 550.797 1005.68 550.029 1005.68 549.432C1005.67 546.53 1005.11 544.057 1004 542.011C1002.97 539.965 1001.47 538.347 999.504 537.156C997.537 535.965 995.228 535.372 992.58 535.377C989.332 535.384 986.599 536.114 984.38 537.569C982.246 538.939 980.584 541.033 979.393 543.851C978.288 546.584 977.696 549.998 977.619 554.094C977.627 558.02 978.189 561.347 979.305 564.075C980.507 566.803 982.262 568.891 984.573 570.337C986.883 571.783 989.661 572.503 992.908 572.497C996.582 572.489 999.701 571.801 1002.26 570.43C1004.9 568.975 1007.09 566.837 1008.79 564.018L1023.28 568.469C1020.21 574.022 1016.12 578.211 1011 581.037C1005.97 583.778 999.897 585.155 992.805 585.169Z" fill="#AFD9FF" fill-opacity="0.04"/>
<path d="M1037.61 576.25C1037.6 573.348 1038.58 570.914 1040.54 568.948C1042.59 566.896 1045.11 565.867 1048.1 565.861C1051.18 565.855 1053.7 566.874 1055.66 568.918C1057.64 570.877 1058.63 573.307 1058.63 576.209C1058.64 578.939 1057.66 581.331 1055.69 583.382C1053.73 585.434 1051.22 586.463 1048.14 586.469C1045.15 586.475 1042.63 585.456 1040.57 583.412C1038.6 581.368 1037.62 578.98 1037.61 576.25ZM1037.52 528.122C1037.51 525.306 1038.49 522.872 1040.45 520.82C1042.5 518.768 1045.02 517.739 1048 517.733C1051.08 517.727 1053.6 518.746 1055.57 520.791C1057.55 522.835 1058.53 525.265 1058.54 528.081C1058.54 530.897 1057.57 533.331 1055.6 535.383C1053.64 537.434 1051.12 538.463 1048.04 538.469C1045.06 538.475 1042.54 537.456 1040.47 535.412C1038.51 533.368 1037.52 530.938 1037.52 528.122Z" fill="#AFD9FF" fill-opacity="0.04"/>
<path d="M1121.05 494.039L1139 494.004L1126.13 534.093L1115.24 534.114L1121.05 494.039Z" fill="#AFD9FF" fill-opacity="0.04"/>
<path d="M1159.5 554.124C1159.5 557.538 1160.28 560.523 1161.82 563.08C1163.36 565.637 1165.42 567.638 1167.98 569.084C1170.63 570.529 1173.54 571.249 1176.7 571.243C1179.27 571.238 1181.74 570.849 1184.13 570.076C1186.53 569.218 1188.66 568.105 1190.54 566.736C1192.5 565.281 1194 563.615 1195.02 561.735L1195.05 578.759C1193 580.641 1190.31 582.139 1186.98 583.255C1183.73 584.285 1179.94 584.805 1175.58 584.813C1169.34 584.825 1163.69 583.556 1158.65 581.006C1153.69 578.456 1149.75 574.879 1146.84 570.277C1144.01 565.589 1142.58 560.216 1142.57 554.157C1142.56 548.013 1143.97 542.635 1146.77 538.021C1149.66 533.407 1153.59 529.816 1158.55 527.246C1163.58 524.676 1169.22 523.385 1175.46 523.373C1179.82 523.365 1183.62 523.912 1186.87 525.015C1190.2 526.033 1192.89 527.435 1194.95 529.223L1194.99 546.247C1193.96 544.372 1192.41 542.754 1190.36 541.392C1188.39 539.945 1186.22 538.84 1183.81 538.077C1181.42 537.314 1179.03 536.934 1176.63 536.939C1173.48 536.945 1170.57 537.719 1167.92 539.26C1165.37 540.716 1163.31 542.725 1161.78 545.288C1160.25 547.851 1159.49 550.796 1159.5 554.124Z" fill="#AFD9FF" fill-opacity="0.04"/>
<path d="M1205.67 554.034C1205.66 547.89 1207.05 542.512 1209.87 537.898C1212.76 533.285 1216.65 529.693 1221.51 527.124C1226.46 524.554 1232.06 523.263 1238.3 523.251C1244.54 523.239 1250.09 524.508 1254.97 527.058C1259.93 529.609 1263.82 533.185 1266.65 537.788C1269.57 542.39 1271.03 547.763 1271.04 553.907C1271.05 559.966 1269.61 565.345 1266.72 570.044C1263.9 574.657 1260.03 578.249 1255.07 580.818C1250.2 583.388 1244.66 584.679 1238.42 584.691C1232.18 584.703 1226.58 583.434 1221.61 580.883C1216.74 578.333 1212.84 574.757 1209.93 570.154C1207.1 565.466 1205.68 560.093 1205.67 554.034ZM1222.59 554.002C1222.6 557.33 1223.29 560.272 1224.66 562.83C1226.12 565.301 1228.04 567.26 1230.44 568.706C1232.83 570.067 1235.48 570.744 1238.39 570.739C1241.29 570.733 1243.95 570.045 1246.33 568.675C1248.72 567.22 1250.59 565.254 1251.96 562.776C1253.41 560.214 1254.13 557.268 1254.12 553.94C1254.12 550.612 1253.38 547.67 1251.93 545.112C1250.55 542.555 1248.67 540.596 1246.28 539.235C1243.88 537.875 1241.23 537.197 1238.33 537.203C1235.41 537.209 1232.77 537.896 1230.38 539.266C1227.99 540.636 1226.07 542.603 1224.63 545.166C1223.26 547.728 1222.59 550.674 1222.59 554.002Z" fill="#AFD9FF" fill-opacity="0.04"/>
<path d="M1273.11 524.463L1290.92 524.429L1305.47 559.856L1319.89 524.372L1337.71 524.337L1305.53 589.424L1273.11 524.463Z" fill="#AFD9FF" fill-opacity="0.04"/>
<path d="M1371.7 584.431C1365.29 584.444 1359.7 583.175 1354.91 580.624C1350.11 578.073 1346.39 574.539 1343.73 570.022C1341.16 565.419 1339.87 560.003 1339.86 553.773C1339.85 547.459 1341.12 542.038 1343.67 537.51C1346.31 532.897 1350.02 529.348 1354.8 526.864C1359.59 524.295 1365.21 523.004 1371.71 522.991C1378.21 522.979 1383.72 524.163 1388.26 526.543C1392.87 528.838 1396.39 532.245 1398.79 536.763C1401.18 541.195 1402.4 546.569 1402.41 552.884C1402.41 553.652 1402.37 554.462 1402.29 555.316C1402.29 556.169 1402.24 556.852 1402.15 557.364L1349.35 557.467L1349.33 547.227L1387.65 547.152L1383.18 553.049C1383.52 552.536 1383.82 551.853 1384.07 550.999C1384.41 550.06 1384.58 549.292 1384.58 548.694C1384.57 545.793 1384.02 543.319 1382.9 541.273C1381.87 539.227 1380.37 537.609 1378.4 536.418C1376.44 535.227 1374.13 534.635 1371.48 534.64C1368.23 534.646 1365.5 535.377 1363.28 536.832C1361.15 538.201 1359.49 540.295 1358.29 543.113C1357.19 545.846 1356.59 549.261 1356.52 553.357C1356.53 557.282 1357.09 560.609 1358.2 563.338C1359.41 566.066 1361.16 568.153 1363.47 569.599C1365.78 571.046 1368.56 571.765 1371.81 571.759C1375.48 571.752 1378.6 571.063 1381.17 569.693C1383.81 568.237 1385.98 566.1 1387.68 563.28L1402.17 567.732C1399.11 573.285 1395.01 577.474 1389.9 580.3C1384.86 583.04 1378.79 584.418 1371.7 584.431Z" fill="#AFD9FF" fill-opacity="0.04"/>
<path d="M1431.14 524.156L1431.27 583.035L1414.98 583.067L1414.87 524.187L1431.14 524.156ZM1448.49 541.402C1447.38 540.38 1446.22 539.614 1445.02 539.105C1443.91 538.509 1442.5 538.214 1440.79 538.217C1438.74 538.221 1436.99 538.779 1435.54 539.891C1434.09 541.003 1432.98 542.584 1432.22 544.634C1431.54 546.598 1431.19 548.988 1431.2 551.804L1426.58 547.205C1426.57 542.511 1427.46 538.371 1429.25 534.783C1431.03 531.111 1433.38 528.205 1436.28 526.066C1439.19 523.841 1442.17 522.726 1445.24 522.72C1447.39 522.716 1449.39 523.096 1451.27 523.86C1453.24 524.625 1454.83 525.774 1456.02 527.307L1448.49 541.402Z" fill="#AFD9FF" fill-opacity="0.04"/>
<path d="M108.395 776.499L108.361 759.091C108.356 756.275 108.478 753.288 108.729 750.13C108.978 746.972 109.614 744.069 110.634 741.422C111.74 738.689 113.444 736.467 115.749 734.756C118.052 733.045 121.34 732.185 125.613 732.177L125.618 734.737C121.345 734.745 118.054 733.898 115.744 732.196C113.432 730.494 111.719 728.321 110.603 725.678C109.573 722.949 108.926 720.007 108.664 716.85C108.401 713.693 108.267 710.707 108.261 707.891L108.227 690.483C108.224 688.776 107.665 687.284 106.553 686.006C105.524 684.728 104.028 684.091 102.063 684.095L97.5762 684.103L97.5502 670.791L108.061 670.771C110.966 670.765 113.83 671.4 116.653 672.674C119.475 673.863 121.743 675.779 123.457 678.421C125.257 680.978 126.16 684.389 126.169 688.656L126.217 713.36C126.226 718.224 126.831 721.636 128.032 723.596C129.231 725.471 131.071 726.748 133.55 727.425L133.574 739.457C131.097 740.06 129.262 741.343 128.07 743.308C126.877 745.273 126.286 748.688 126.295 753.552L126.343 778.256C126.352 782.437 125.461 785.852 123.672 788.501C121.968 791.149 119.707 793.074 116.89 794.274C114.072 795.56 111.211 796.205 108.305 796.211L97.795 796.231L97.7691 782.919L102.255 782.91C104.221 782.907 105.715 782.221 106.737 780.854C107.846 779.572 108.398 778.12 108.395 776.499Z" fill="#AFD9FF" fill-opacity="0.04"/>
<path d="M155.871 796.118L140.746 796.148C145.256 786.496 148.655 776.335 150.941 765.664C153.228 754.993 154.36 744.238 154.339 733.401C154.318 722.478 153.143 711.686 150.815 701.024C148.487 690.362 145.049 680.256 140.502 670.708L155.627 670.678C160.772 680.226 164.594 690.33 167.094 700.992C169.678 711.654 170.981 722.446 171.002 733.369C171.023 744.206 169.762 754.96 167.22 765.632C164.763 776.303 160.979 786.466 155.871 796.118Z" fill="#AFD9FF" fill-opacity="0.04"/>
<path d="M196.097 715.272C196.091 712.456 197.069 710.064 199.031 708.098C201.078 706.046 203.596 705.017 206.588 705.011C209.664 705.005 212.186 706.024 214.156 708.069C216.125 710.027 217.112 712.415 217.118 715.231C217.123 718.047 216.146 720.481 214.184 722.533C212.222 724.584 209.704 725.613 206.628 725.619C203.636 725.625 201.114 724.606 199.059 722.562C197.089 720.518 196.102 718.088 196.097 715.272ZM199.125 756.354L215.668 760.418L200.221 792.448L187.911 789.528L199.125 756.354Z" fill="#AFD9FF" fill-opacity="0.04"/>
</g>
<defs>
<clipPath id="clip0_441_11">
<rect width="1442" height="797" fill="white"/>
</clipPath>
</defs>
</svg>
