<svg width="38" height="38" viewBox="0 0 38 38" fill="none" xmlns="http://www.w3.org/2000/svg">
<path d="M35.9097 2.09029C34.5155 0.696131 32.838 0 30.8751 0H7.12488C5.16202 0 3.48446 0.696131 2.09029 2.09029C0.696131 3.48446 0 5.16202 0 7.12488V30.8751C0 32.838 0.696131 34.5155 2.09029 35.9097C3.48446 37.3039 5.16202 38 7.12488 38H12.6673C13.0287 38 13.3007 37.9867 13.4833 37.962C13.6957 37.9194 13.8874 37.8061 14.0272 37.6405C14.2079 37.4503 14.2992 37.1745 14.2992 36.8132L14.2859 35.1299C14.2783 34.0572 14.2745 33.2089 14.2745 32.5812L13.7039 32.6801C13.3425 32.7467 12.886 32.7752 12.3325 32.7676C11.7556 32.757 11.1806 32.6991 10.6131 32.5945C10.0091 32.483 9.44042 32.2287 8.9546 31.8527C8.44581 31.4678 8.06632 30.9371 7.86666 30.3311L7.6194 29.7605C7.411 29.3104 7.14917 28.8871 6.83958 28.4995C6.48581 28.0373 6.12633 27.7254 5.76305 27.5599L5.59187 27.4363C5.47251 27.3508 5.36394 27.2512 5.26853 27.1396C5.17741 27.036 5.10239 26.9193 5.046 26.7934C4.99655 26.6774 5.03839 26.5823 5.16963 26.5081C5.30277 26.4321 5.54052 26.3959 5.88858 26.3959L6.3831 26.472C6.71215 26.5367 7.12108 26.7345 7.60609 27.0635C8.09692 27.3981 8.50693 27.838 8.80625 28.3512C9.18665 29.0264 9.64313 29.5418 10.1795 29.8975C10.7159 30.2513 11.256 30.43 11.8 30.43C12.344 30.43 12.8138 30.3882 13.2113 30.3064C13.5957 30.2269 13.9692 30.1018 14.3239 29.9336C14.4723 28.8305 14.8755 27.9784 15.5355 27.385C14.6803 27.3011 13.8328 27.1523 13.0001 26.9399C12.1876 26.7167 11.4062 26.3927 10.674 25.9756C9.90797 25.5585 9.23135 24.995 8.68262 24.317C8.15576 23.657 7.72211 22.7916 7.38355 21.7208C7.0469 20.6481 6.87762 19.4099 6.87762 18.0081C6.87762 16.0129 7.5281 14.3144 8.83097 12.9108C8.22233 11.412 8.27939 9.72871 9.00406 7.86666C9.48336 7.7164 10.1928 7.82862 11.1324 8.19951C12.072 8.5704 12.7605 8.88803 13.198 9.15051C13.6354 9.41679 13.9854 9.63932 14.2498 9.82001C15.796 9.38969 17.394 9.17338 18.9991 9.17714C20.6329 9.17714 22.2153 9.39206 23.7502 9.82001L24.6898 9.22659C25.4126 8.79265 26.1749 8.42837 26.9665 8.13865C27.8414 7.8077 28.5071 7.7183 28.9712 7.86666C29.713 9.73062 29.7777 11.412 29.1671 12.9127C30.47 14.3144 31.1224 16.0129 31.1224 18.01C31.1224 19.4118 30.9531 20.6538 30.6145 21.7322C30.2779 22.8126 29.8404 23.678 29.3041 24.3303C28.7457 24.9996 28.0662 25.5578 27.3013 25.9756C26.5024 26.4206 25.7264 26.7421 24.9751 26.9399C24.1426 27.153 23.295 27.3024 22.4398 27.3869C23.2957 28.1286 23.7255 29.2984 23.7255 30.8979V36.8132C23.7255 37.0927 23.7655 37.3191 23.8491 37.4922C23.8876 37.5756 23.9425 37.6504 24.0104 37.7121C24.0784 37.7739 24.1581 37.8213 24.2448 37.8516C24.4273 37.9163 24.5871 37.9582 24.7279 37.9734C24.8686 37.9924 25.0702 37.9981 25.3327 37.9981H30.8751C32.838 37.9981 34.5155 37.302 35.9097 35.9078C37.302 34.5155 38 32.8361 38 30.8732V7.12488C38 5.16202 37.3039 3.48446 35.9097 2.09029Z" fill="#0085FF"/>
</svg>
