<svg width="38" height="38" viewBox="0 0 38 38" fill="none" xmlns="http://www.w3.org/2000/svg">
<path d="M34.8333 0H3.16667C2.32681 0 1.52136 0.33363 0.927495 0.927495C0.33363 1.52136 0 2.32681 0 3.16667V34.8333C0 35.6732 0.33363 36.4786 0.927495 37.0725C1.52136 37.6664 2.32681 38 3.16667 38H34.8333C35.6732 38 36.4786 37.6664 37.0725 37.0725C37.6664 36.4786 38 35.6732 38 34.8333V3.16667C38 2.32681 37.6664 1.52136 37.0725 0.927495C36.4786 0.33363 35.6732 0 34.8333 0ZM16.5656 31.7636C14.8013 32.9662 12.6517 33.467 10.5376 33.1681C8.42344 32.8691 6.49699 31.7918 5.13533 30.1472C3.77367 28.5026 3.07483 26.4089 3.17561 24.2761C3.27639 22.1434 4.16953 20.125 5.68021 18.616L10.7014 13.5949C12.3099 11.9893 14.4898 11.0875 16.7626 11.0875C19.0353 11.0875 21.2152 11.9893 22.8238 13.5949C23.6929 14.4588 24.3647 15.5006 24.793 16.6488C24.8658 16.8437 24.8995 17.051 24.8921 17.259C24.8847 17.4669 24.8365 17.6714 24.7501 17.8607C24.6637 18.05 24.5409 18.2204 24.3887 18.3622C24.2364 18.5041 24.0577 18.6145 23.8628 18.6873C23.6679 18.7601 23.4605 18.7937 23.2526 18.7864C23.0446 18.779 22.8402 18.7308 22.6509 18.6444C22.4616 18.558 22.2912 18.4352 22.1493 18.2829C22.0075 18.1307 21.897 17.952 21.8243 17.7571C21.5061 16.9104 20.9806 16.1569 20.296 15.5658C19.6114 14.9746 18.7894 14.5646 17.9054 14.3732C17.0213 14.1818 16.1034 14.2152 15.2355 14.4703C14.3677 14.7254 13.5777 15.194 12.9378 15.8333L7.91667 20.8545C6.96488 21.8063 6.40233 23.0789 6.33902 24.4235C6.27571 25.7681 6.71619 27.0879 7.57433 28.1249C8.43247 29.162 9.64657 29.8417 10.9792 30.0311C12.3119 30.2205 13.6673 29.906 14.7804 29.1492C14.9516 29.0211 15.147 28.9291 15.3548 28.8786C15.5625 28.8281 15.7783 28.8202 15.9892 28.8554C16.2001 28.8906 16.4016 28.9681 16.5817 29.0833C16.7619 29.1985 16.9168 29.349 17.0371 29.5257C17.1575 29.7024 17.2409 29.9016 17.2822 30.1114C17.3234 30.3211 17.3218 30.5371 17.2774 30.7462C17.233 30.9553 17.1466 31.1533 17.0236 31.3282C16.9006 31.503 16.7435 31.6512 16.5617 31.7636H16.5656ZM32.3218 19.384L27.3006 24.4051C26.5069 25.2039 25.5625 25.8371 24.5222 26.2683C23.482 26.6994 22.3665 26.9198 21.2404 26.9167C19.4961 26.9144 17.794 26.3805 16.3608 25.3862C14.9277 24.3919 13.8317 22.9843 13.2189 21.3513C13.0719 20.9576 13.0873 20.5216 13.2618 20.1393C13.4362 19.757 13.7554 19.4597 14.1491 19.3127C14.5427 19.1657 14.9787 19.1812 15.361 19.3556C15.7433 19.5301 16.0406 19.8492 16.1876 20.2429C16.5739 21.2699 17.2633 22.1553 18.1642 22.7816C19.0652 23.4079 20.1352 23.7456 21.2325 23.75C21.9429 23.752 22.6466 23.6132 23.303 23.3414C23.9593 23.0696 24.5553 22.6703 25.0563 22.1667L30.0833 17.1455C31.0351 16.1937 31.5977 14.9211 31.661 13.5765C31.7243 12.2319 31.2838 10.9121 30.4257 9.87506C29.5675 8.83802 28.3534 8.15834 27.0208 7.96892C25.6881 7.7795 24.3327 8.09397 23.2196 8.85083C23.0484 8.97887 22.853 9.0709 22.6453 9.12139C22.4375 9.17187 22.2217 9.17976 22.0108 9.14458C21.7999 9.10939 21.5984 9.03187 21.4183 8.91667C21.2381 8.80148 21.0832 8.651 20.9629 8.47432C20.8425 8.29763 20.7591 8.0984 20.7178 7.88863C20.6766 7.67887 20.6782 7.46291 20.7226 7.25378C20.767 7.04466 20.8534 6.8467 20.9764 6.67184C21.0994 6.49697 21.2565 6.34884 21.4383 6.23635C23.203 5.03983 25.3502 4.54372 27.4608 4.84483C29.5715 5.14594 31.4943 6.22267 32.854 7.86491C34.2137 9.50716 34.9127 11.5971 34.8147 13.7269C34.7166 15.8567 33.8286 17.8736 32.3238 19.384H32.3218Z" fill="#0084FF"/>
</svg>
