<svg width="160" height="160" viewBox="0 0 160 160" fill="none" xmlns="http://www.w3.org/2000/svg">
<g clip-path="url(#clip0_416_87)">
<path d="M0 0H160V160H0V0Z" fill="#F7DF1E"/>
<path d="M42.07 133.707L54.3137 126.297C56.6762 130.486 58.825 134.029 63.9794 134.029C68.92 134.029 72.0356 132.097 72.0356 124.579V73.4556H87.0712V124.792C87.0712 140.365 77.9425 147.454 64.6237 147.454C52.5956 147.454 45.6137 141.224 42.0694 133.706M95.2381 132.096L107.481 125.008C110.704 130.271 114.893 134.137 122.303 134.137C128.533 134.137 132.506 131.022 132.506 126.726C132.506 121.571 128.424 119.745 121.551 116.739L117.792 115.126C106.944 110.509 99.7487 104.709 99.7487 92.4656C99.7487 81.1881 108.341 72.5956 121.766 72.5956C131.325 72.5956 138.199 75.9256 143.139 84.625L131.431 92.1437C128.853 87.5256 126.062 85.7 121.766 85.7C117.362 85.7 114.569 88.4925 114.569 92.1437C114.569 96.6543 117.362 98.4812 123.806 101.274L127.564 102.884C140.346 108.362 147.541 113.947 147.541 126.512C147.541 140.046 136.909 147.456 122.624 147.456C108.662 147.456 99.6406 140.797 95.2375 132.097" fill="black"/>
</g>
<defs>
<clipPath id="clip0_416_87">
<rect width="160" height="160" fill="white"/>
</clipPath>
</defs>
</svg>
