<svg width="156" height="160" viewBox="0 0 156 160" fill="none" xmlns="http://www.w3.org/2000/svg">
<g clip-path="url(#clip0_414_73)">
<path d="M155.068 36.1334C155.126 36.3461 155.156 36.5655 155.156 36.7861V71.0698C155.156 71.9655 154.677 72.7928 153.899 73.2382L125.125 89.8061V122.642C125.126 123.082 125.01 123.514 124.791 123.894C124.572 124.275 124.256 124.591 123.876 124.812L63.8103 159.389C63.6727 159.467 63.523 159.516 63.3727 159.57C63.3164 159.589 63.2636 159.623 63.2042 159.639C62.7843 159.749 62.3429 159.749 61.923 159.639C61.8539 159.621 61.7915 159.582 61.7261 159.558C61.5885 159.507 61.4449 159.464 61.3139 159.389L1.26061 124.811C0.878995 124.592 0.561903 124.276 0.341321 123.895C0.120739 123.515 0.00446944 123.083 0.00424194 122.642L0.00424194 19.7916C0.00424194 19.5661 0.0357571 19.3473 0.0915147 19.1352C0.110303 19.0631 0.153939 18.9976 0.179393 18.9255C0.22606 18.7946 0.270303 18.6601 0.338787 18.5382C0.385454 18.457 0.453939 18.3916 0.510303 18.3164C0.582424 18.2164 0.647878 18.1134 0.732121 18.0255C0.804242 17.954 0.898181 17.9007 0.979393 17.8382C1.0703 17.7631 1.15091 17.6819 1.25394 17.6225H1.25697L31.2848 0.334002C31.6651 0.115173 32.0961 0 32.5348 0C32.9736 0 33.4046 0.115173 33.7848 0.334002L63.8127 17.6225H63.8188C63.9188 17.6855 64.0036 17.7631 64.0939 17.8352C64.1752 17.8976 64.2661 17.954 64.3376 18.0231C64.4255 18.1134 64.4879 18.217 64.5624 18.3164C64.6158 18.3916 64.6879 18.457 64.7315 18.5382C64.803 18.6631 64.8436 18.7946 64.8939 18.9261C64.9188 18.9976 64.9624 19.0631 64.9812 19.1382C65.0388 19.351 65.0685 19.571 65.0691 19.7916V84.0304L90.0909 69.6225V36.7831C90.0909 36.5649 90.1224 36.3425 90.1788 36.1334C90.2006 36.0582 90.2412 35.9928 90.2661 35.9213C90.3164 35.7898 90.36 35.6546 90.4285 35.5334C90.4752 35.4522 90.5436 35.3867 90.5976 35.3116C90.6721 35.2116 90.7346 35.1085 90.8218 35.0207C90.8945 34.9492 90.9848 34.8958 91.0661 34.8334C91.16 34.7582 91.2412 34.677 91.3412 34.6176H91.3442L121.375 17.3292C121.755 17.11 122.186 16.9947 122.625 16.9947C123.064 16.9947 123.495 17.11 123.875 17.3292L153.903 34.6176C154.009 34.6801 154.09 34.7582 154.184 34.8298C154.262 34.8928 154.353 34.9492 154.425 35.0176C154.512 35.1085 154.575 35.2116 154.649 35.3116C154.706 35.3867 154.775 35.4522 154.819 35.5334C154.89 35.6546 154.931 35.7898 154.981 35.9213C155.009 35.9928 155.05 36.0582 155.068 36.1334ZM150.15 69.6231V41.114L139.642 47.1631L125.125 55.5219V84.031L150.153 69.6231H150.15ZM120.122 121.196V92.6667L105.842 100.822L65.0661 124.095V152.892L120.122 121.196ZM5.0097 24.1189V121.196L60.06 152.889V124.098L31.3012 107.822L31.2921 107.816L31.28 107.81C31.183 107.753 31.1012 107.672 31.0109 107.604C30.9321 107.541 30.8418 107.491 30.7733 107.422L30.7673 107.413C30.6861 107.335 30.6297 107.238 30.5612 107.15C30.4982 107.066 30.4236 106.994 30.3733 106.907L30.3703 106.897C30.3139 106.804 30.2794 106.691 30.2388 106.585C30.1982 106.491 30.1455 106.403 30.12 106.304V106.301C30.0891 106.182 30.083 106.056 30.0703 105.935C30.0582 105.841 30.0327 105.747 30.0327 105.653V38.5273L15.5182 30.1649L5.0097 24.1225V24.1189ZM32.5382 5.38976L7.51879 19.7916L32.5321 34.1928L57.5479 19.7879L32.5321 5.38976H32.5382ZM45.5491 95.2673L60.063 86.9122V24.1189L49.5558 30.1685L35.0376 38.5267V101.319L45.5491 95.2673ZM122.625 22.3849L97.6091 36.7861L122.625 51.1879L147.638 36.7831L122.625 22.3849ZM120.122 55.5219L105.605 47.1631L95.097 41.114V69.6231L109.611 77.9789L120.122 84.031L120.122 55.5219ZM62.56 119.768L99.2527 98.8201L117.595 88.3522L92.597 73.9601L63.8158 90.5298L37.5842 105.632L62.56 119.768Z" fill="#FF2D20"/>
</g>
<defs>
<clipPath id="clip0_414_73">
<rect width="155.16" height="160" fill="white"/>
</clipPath>
</defs>
</svg>
