<svg width="191" height="130" viewBox="0 0 191 130" fill="none" xmlns="http://www.w3.org/2000/svg">
<g clip-path="url(#clip0_414_75)">
<path d="M56.8208 85.7839L62.6251 104.59C63.9292 108.86 64.4731 111.841 64.2552 113.539C67.4297 105.05 69.6477 95.7976 70.9097 85.7839H77.889C74.888 102.086 70.9298 113.933 66.0167 121.323C62.1886 127.019 57.9951 129.866 53.4285 129.866C52.2109 129.866 50.7098 129.499 48.9286 128.769V124.839C49.7989 124.967 50.8199 125.035 51.9942 125.035C54.1245 125.035 55.8416 124.445 57.1479 123.269C58.712 121.835 59.495 120.223 59.495 118.437C59.495 117.218 58.8844 114.715 57.6687 110.929L49.5814 85.7839H56.8208ZM12.3981 74.2251L23.0293 106.616H23.095L33.7916 74.2251H42.5308C44.4445 90.2885 45.5747 104.986 45.9217 118.308H38.5536C38.2944 105.855 37.5763 94.1442 36.402 83.1746H36.3378L25.1179 118.308H19.5068L8.35481 83.1746H8.28916C7.46178 93.7095 6.94104 105.42 6.72394 118.308H0.00496483C0.439169 102.634 1.5258 87.9407 3.26485 74.2251H12.3981Z" fill="#00758F"/>
<path d="M131.496 73.571C142.932 73.571 148.65 80.8667 148.65 95.4509C148.65 103.376 146.931 109.362 143.495 113.407C142.876 114.146 142.191 114.784 141.47 115.376L149.563 119.371L149.555 119.371L146.682 124.326L136.143 118.185C134.396 118.702 132.474 118.96 130.379 118.96C124.764 118.96 120.57 117.326 117.797 114.062C114.753 110.451 113.231 104.766 113.231 97.0176C113.231 89.1371 114.948 83.1735 118.385 79.1242C121.516 75.4201 125.887 73.571 131.496 73.571ZM96.4766 73.6347C100.564 73.6347 104.28 74.7269 107.628 76.9034L105.928 80.6868C103.063 79.471 100.239 78.8605 97.4539 78.8605C95.1941 78.8605 93.4528 79.4035 92.239 80.4964C91.0184 81.5796 90.2634 82.9735 90.2634 84.6728C90.2634 87.284 92.1263 89.5484 95.566 91.4615C96.6929 92.0766 97.8159 92.6988 98.9348 93.3281L99.1915 93.4722L99.3202 93.5445L99.5772 93.6886L99.7055 93.7609L99.9622 93.9054C102.566 95.3712 105.016 96.7703 105.016 96.7703C108.455 99.2082 110.17 101.807 110.17 106.089C110.17 109.827 108.798 112.896 106.063 115.298C103.326 117.688 99.6488 118.887 95.0442 118.887C90.7376 118.887 86.5638 117.507 82.5209 114.771L84.4121 110.984C87.8914 112.726 91.0397 113.595 93.8669 113.595C96.5184 113.595 98.5939 113.004 100.095 111.837C101.594 110.661 102.492 109.021 102.492 106.941C102.492 104.324 100.668 102.086 97.3234 100.209C96.2764 99.6315 95.2325 99.0483 94.1918 98.4595L93.9355 98.3146C93.4648 98.049 92.9906 97.7801 92.5262 97.5168L92.2744 97.3737C90.0158 96.0909 88.063 94.97 88.063 94.97C84.7191 92.5276 83.0424 89.9071 83.0424 85.5892C83.0424 82.0181 84.2928 79.1316 86.7898 76.9358C89.2928 74.7351 92.5221 73.6347 96.4766 73.6347ZM162.09 74.2248V112.885H175.981V118.308H155.045V74.2251L162.09 74.2248ZM183.7 112.902V113.818H182.173V118.303H181.005V113.818H179.419V112.902H183.7ZM186.52 112.902L187.986 116.584L189.333 112.902H190.988V118.303H189.888V114.193L188.355 118.303H187.561L186.026 114.193H185.967V118.303H184.926V112.902H186.52ZM130.777 78.9923C124.038 78.9923 120.667 84.5462 120.667 95.6465C120.667 102.005 121.56 106.616 123.344 109.489C124.995 112.149 127.582 113.476 131.105 113.476C137.844 113.476 141.215 107.879 141.215 96.6902C141.215 90.4208 140.321 85.8495 138.54 82.9743C136.887 80.3206 134.301 78.9923 130.778 78.9923" fill="#F29111"/>
<path d="M113.114 2.73152C115.349 -2.75381 123.166 1.40023 126.199 3.31633C126.943 3.79573 127.796 4.80854 128.648 5.18289C129.978 5.23504 131.307 5.33897 132.639 5.39447C135.137 5.98077 137.478 6.4598 139.446 7.57951C148.596 12.9602 154.552 18.4433 160.034 27.5001C161.205 29.4184 161.79 31.4943 162.747 33.5702C164.075 36.6645 165.567 39.9126 167.109 42.8386C167.799 44.2257 168.333 45.7682 169.291 46.9397C169.665 47.4754 170.728 47.6333 171.363 47.9533C173.119 48.861 175.247 49.5501 176.899 50.6155C179.983 52.536 182.966 54.8246 185.677 57.1676C186.687 58.072 187.376 59.3523 188.339 60.3089V60.7916C187.484 61.0535 186.632 61.3217 185.78 61.5366C183.918 62.0141 182.269 61.9061 180.463 62.384C179.347 62.7073 177.961 63.1338 176.791 63.2422L176.899 63.351C177.587 65.3159 181.313 66.9139 183.017 68.0891C185.087 69.5806 187.004 71.3894 188.548 73.4668C189.081 73.9968 189.614 74.4792 190.145 75.0078C190.515 75.5434 190.62 76.2363 190.995 76.7138V76.8755C190.579 76.7291 190.281 76.4497 189.998 76.1577L189.829 75.9815C189.66 75.8064 189.489 75.6343 189.295 75.4924C188.12 74.6916 186.954 73.7335 185.78 72.9889C183.761 71.7097 181.42 70.9674 179.347 69.6834C178.175 68.938 177.058 68.0891 175.94 67.2361C174.928 66.4885 173.812 65.0529 173.176 63.9876C172.801 63.3991 172.75 62.7073 172.321 62.2816C172.398 61.5705 173.05 61.3593 173.709 61.1857L173.86 61.1458C174.087 61.087 174.31 61.0281 174.504 60.9503C177.269 59.7777 180.566 59.3523 184.824 59.4588C184.664 58.3913 182.003 57.0611 181.154 56.4219C179.449 55.1949 177.644 53.9146 175.836 52.7979C174.877 52.2131 173.226 51.7862 172.164 51.3083C170.728 50.722 167.535 50.1361 166.739 49.0193C165.387 47.2589 164.415 45.1592 163.472 43.0382L163.216 42.4594C163.13 42.2664 163.044 42.0736 162.958 41.8809C161.844 39.3267 160.459 36.6637 159.342 34.0485C158.758 32.7727 158.489 31.653 157.85 30.4293C153.968 22.9206 148.222 16.6341 141.256 12.2129C138.966 10.7744 136.414 9.44309 133.596 8.53831C131.999 8.05667 130.082 8.32301 128.381 7.95349H127.261C126.305 7.68455 125.507 6.67286 124.762 6.13945C123.115 5.02272 121.465 4.27289 119.496 3.47613C118.806 3.15653 116.835 2.41229 116.147 2.99822C115.721 3.10513 115.505 3.26567 115.4 3.69255C114.977 4.32951 115.349 5.28905 115.613 5.87647C116.412 7.57877 117.528 8.59046 118.541 10.029C119.442 11.3048 120.562 12.7434 121.201 14.1305C122.58 17.1123 123.222 20.416 124.499 23.3974C124.973 24.5186 125.722 25.7944 126.412 26.8057C126.997 27.6084 128.059 28.1888 128.381 29.205C129.022 30.2703 127.421 33.7855 127.051 34.9019C125.665 39.2701 125.934 45.3421 127.53 49.1285L127.615 49.3281L127.7 49.5304C128.282 50.9172 128.906 52.4105 130.455 52.7983C130.562 52.6925 130.455 52.748 130.667 52.6925C131.042 49.7617 131.147 46.9393 132.159 44.6463C132.743 43.2126 133.911 42.199 134.711 41.0286C135.244 41.3475 135.244 42.3089 135.562 42.9451C136.254 44.5952 136.998 46.4044 137.851 48.0594C139.603 51.4677 141.574 54.7721 143.807 57.7536C144.555 58.8185 145.617 59.9907 146.574 60.9499C147 61.3213 147.478 61.5358 147.798 62.0138H147.903V62.1747C146.307 61.5872 145.295 59.9386 144.022 58.9761C141.626 57.1669 138.756 54.4499 137.105 51.8428C136.414 50.3462 135.667 48.9117 134.922 47.4225V47.3148C134.604 47.7402 134.711 48.1626 134.552 48.8063C133.861 51.4677 134.393 54.5039 131.999 55.4612C129.285 56.5824 127.261 53.652 126.412 52.3204C123.698 47.9004 122.954 40.4438 124.868 34.4247C125.294 33.0923 125.352 31.4943 126.094 30.4305C125.933 29.4687 125.191 29.2057 124.762 28.6164C124.017 27.6092 123.38 26.4358 122.797 25.3172C121.677 23.1322 120.88 20.5214 120.03 18.178C119.656 17.2211 119.549 16.2605 119.176 15.3546C118.541 13.9719 117.369 12.5847 116.465 11.3614C115.241 9.60326 111.677 6.1957 113.114 2.73152ZM130.561 13.1669C130.703 13.3092 130.875 13.4336 131.052 13.5562L131.266 13.7029C131.552 13.9003 131.828 14.1082 131.997 14.3913C132.266 14.766 132.316 15.1359 132.638 15.5114C132.638 16.7916 132.266 17.6428 131.516 18.1732C131.516 18.1732 131.465 18.2291 131.412 18.2812C130.987 17.4278 130.614 16.5789 130.186 15.7263C129.659 14.9821 128.913 14.3917 128.483 13.5413H128.38V13.4344C129.022 13.276 129.659 13.1669 130.561 13.1669Z" fill="#00758F"/>
</g>
<defs>
<clipPath id="clip0_414_75">
<rect width="191" height="130" fill="white"/>
</clipPath>
</defs>
</svg>
