<svg width="158" height="158" viewBox="0 0 158 158" fill="none" xmlns="http://www.w3.org/2000/svg">
<path d="M27.3375 57.75H151.925V149.837H27.3375V57.75Z" fill="white"/>
<path d="M0.875 78.8875V157.013H157.125V0.762512H0.875V78.8875ZM126.788 72.6375C130.53 73.506 133.931 75.4633 136.563 78.2625C138.011 79.7707 139.27 81.4498 140.313 83.2625C140.313 83.4625 133.563 88.025 129.45 90.575C129.3 90.675 128.7 90.025 128.038 89.0375C127.287 87.7421 126.22 86.658 124.937 85.8864C123.654 85.1148 122.196 84.6808 120.7 84.625C115.963 84.3 112.913 86.7875 112.938 90.875C112.9 91.8926 113.132 92.902 113.613 93.8C114.65 95.9625 116.588 97.25 122.663 99.875C133.85 104.688 138.637 107.863 141.612 112.375C144.937 117.375 145.675 125.45 143.425 131.425C140.925 137.925 134.8 142.338 126.137 143.8C122.181 144.253 118.184 144.211 114.238 143.675C108.19 142.678 102.619 139.774 98.3375 135.388C96.9 133.8 94.1 129.663 94.275 129.363C94.7304 129.022 95.211 128.717 95.7125 128.45L101.5 125.25L105.987 122.65L106.925 124.038C108.508 126.3 110.521 128.229 112.85 129.713C117.85 132.338 124.675 131.975 128.05 128.938C129.183 127.824 129.89 126.349 130.048 124.769C130.205 123.188 129.804 121.602 128.913 120.288C127.663 118.55 125.162 117.088 118.175 114.038C110.112 110.563 106.637 108.413 103.462 104.988C101.481 102.727 100.018 100.061 99.175 97.175C98.5469 93.8781 98.4541 90.5015 98.9 87.175C100.562 79.3875 106.4 73.95 114.925 72.3375C118.873 71.8498 122.872 71.9593 126.788 72.6625V72.6375ZM90.1125 79.1875V85.5875H69.825V143.375H55.4375V85.575H35.1V79.325C35.0362 77.1697 35.0863 75.0125 35.25 72.8625C35.35 72.75 47.75 72.75 62.75 72.75H90.0375L90.1125 79.1875Z" fill="#007ACC"/>
</svg>
