<svg width="168" height="100" viewBox="0 0 168 100" fill="none" xmlns="http://www.w3.org/2000/svg">
<path d="M47.3174 36.234C47.3174 38.2843 47.5396 39.9464 47.9272 41.1653C48.4193 42.5367 49.0117 43.87 49.6997 45.1542C49.9769 45.5974 50.0873 46.0405 50.0873 46.4287C50.0873 46.9823 49.7553 47.5366 49.035 48.0908L45.5448 50.4176C45.0462 50.7503 44.5475 50.9163 44.1037 50.9163C43.5501 50.9163 42.9958 50.6392 42.4416 50.1405C41.6952 49.3383 41.0274 48.4663 40.4475 47.5366C39.8932 46.5954 39.339 45.5418 38.7298 44.268C34.4082 49.3647 28.9782 51.9137 22.4409 51.9137C17.7873 51.9137 14.0749 50.5836 11.3599 47.9248C8.6455 45.2647 7.26053 41.7189 7.26053 37.2869C7.26053 32.5778 8.92262 28.7549 12.3024 25.8738C15.6814 22.9928 20.1697 21.5523 25.8762 21.5523C27.7599 21.5523 29.6991 21.7183 31.7488 21.9954C33.7991 22.2725 35.9043 22.7157 38.1207 23.2144V19.1699C38.1207 14.9588 37.2337 12.0229 35.5161 10.3052C33.7435 8.58757 30.7514 7.7562 26.4854 7.7562C24.5462 7.7562 22.552 7.97842 20.5017 8.47711C18.452 8.97515 16.4573 9.58495 14.518 10.3608C13.6318 10.7484 12.9671 10.9699 12.5788 11.081C12.1912 11.1921 11.9141 11.247 11.6926 11.247C10.9167 11.247 10.5292 10.6928 10.5292 9.5294V6.81437C10.5292 5.92809 10.6403 5.26339 10.9167 4.8758C11.1939 4.48757 11.6926 4.09999 12.4684 3.7124C14.4076 2.71502 16.7344 1.88365 19.4488 1.21894C22.1645 0.498679 25.0455 0.166653 28.0926 0.166653C34.686 0.166653 39.5063 1.66208 42.6089 4.65423C45.656 7.64574 47.2076 12.1889 47.2076 18.2836V36.234H47.3174ZM24.8233 44.6555C26.652 44.6555 28.5357 44.3235 30.5298 43.6582C32.5246 42.9935 34.2978 41.7745 35.7932 40.1124C36.6801 39.0601 37.3448 37.8967 37.6769 36.5667C38.0095 35.2372 38.2311 33.6301 38.2311 31.7464V29.4196C36.5509 29.0106 34.8491 28.6962 33.1337 28.4778C31.4064 28.2584 29.6671 28.1473 27.9259 28.1451C24.2135 28.1451 21.4991 28.8653 19.671 30.3614C17.8422 31.8575 16.956 33.9627 16.956 36.7327C16.956 39.3366 17.6207 41.2758 19.0056 42.6059C20.3357 43.9908 22.2749 44.6555 24.8233 44.6555ZM69.3128 50.6392C68.3154 50.6392 67.6507 50.4732 67.2076 50.085C66.7645 49.7529 66.3762 48.9771 66.0442 47.9248L53.0246 5.09737C52.6912 3.98888 52.5252 3.26861 52.5252 2.88103C52.5252 1.99476 52.9684 1.49541 53.8553 1.49541H59.2847C60.337 1.49541 61.0579 1.66208 61.4455 2.04966C61.8886 2.38234 62.2213 3.15816 62.5533 4.21044L71.8612 40.8882L80.5043 4.21044C80.7814 3.1026 81.1141 2.38234 81.5566 2.04966C82.0004 1.71763 82.7762 1.49606 83.7736 1.49606H88.2056C89.2579 1.49606 89.9788 1.66208 90.4213 2.04966C90.8651 2.38234 91.2527 3.15816 91.4743 4.21044L100.229 41.3314L109.813 4.21044C110.145 3.1026 110.533 2.38234 110.921 2.04966C111.364 1.71763 112.084 1.49606 113.081 1.49606H118.234C119.121 1.49606 119.619 1.9392 119.619 2.88103C119.619 3.15816 119.564 3.43528 119.508 3.76731C119.453 4.09999 119.342 4.54312 119.121 5.15293L105.768 47.9797C105.436 49.0882 105.048 49.8085 104.604 50.1405C104.161 50.4732 103.441 50.6948 102.5 50.6948H97.735C96.6821 50.6948 95.9618 50.5287 95.5181 50.1405C95.0749 49.7529 94.6873 49.0327 94.4658 47.9248L85.8775 12.1889L77.3455 47.8686C77.069 48.9771 76.7363 49.6974 76.2932 50.085C75.8501 50.4732 75.0743 50.6392 74.0775 50.6392H69.3128ZM140.507 52.1353C137.626 52.1353 134.745 51.8026 131.975 51.1379C129.204 50.4732 127.044 49.7523 125.604 48.9222C124.717 48.4229 124.107 47.8693 123.886 47.3706C123.67 46.8815 123.557 46.3535 123.553 45.8189V42.9935C123.553 41.8301 123.996 41.2758 124.828 41.2758C125.167 41.2771 125.504 41.3334 125.825 41.4425C126.157 41.5536 126.656 41.7745 127.21 41.9961C129.167 42.8568 131.21 43.5069 133.304 43.9353C135.475 44.3757 137.683 44.5984 139.898 44.6C143.388 44.6 146.103 43.9908 147.987 42.7719C149.87 41.5529 150.868 39.7804 150.868 37.5085C150.868 35.9575 150.369 34.683 149.372 33.6301C148.374 32.5778 146.491 31.6359 143.776 30.749L135.742 28.2562C131.698 26.9817 128.706 25.098 126.878 22.6046C125.049 20.1667 124.108 17.4523 124.108 14.5712C124.108 12.2444 124.606 10.1941 125.604 8.4209C126.6 6.64835 127.93 5.09737 129.593 3.87842C131.255 2.60391 133.138 1.66208 135.355 0.997372C137.57 0.332666 139.897 0.055542 142.335 0.055542C143.554 0.055542 144.829 0.111098 146.047 0.277111C147.322 0.443124 148.485 0.664692 149.649 0.886261C150.757 1.16339 151.81 1.44051 152.807 1.77319C153.804 2.10522 154.579 2.43789 155.134 2.76992C155.91 3.21371 156.463 3.65685 156.796 4.15554C157.129 4.59868 157.295 5.20783 157.295 5.98365V8.58757C157.295 9.75097 156.851 10.3608 156.02 10.3608C155.577 10.3608 154.857 10.1385 153.915 9.69541C150.757 8.25489 147.211 7.53463 143.278 7.53463C140.119 7.53463 137.626 8.03332 135.908 9.08626C134.191 10.1385 133.304 11.7457 133.304 14.017C133.304 15.5686 133.859 16.898 134.966 17.951C136.075 19.0033 138.125 20.0562 141.061 20.998L148.929 23.4915C152.917 24.766 155.798 26.5385 157.516 28.8098C159.234 31.0817 160.065 33.6856 160.065 36.5667C160.065 38.949 159.566 41.1098 158.624 42.9935C157.627 44.8771 156.297 46.5392 154.579 47.8693C152.862 49.2542 150.812 50.2516 148.43 50.9719C145.936 51.7477 143.332 52.1353 140.507 52.1353Z" fill="white"/>
<path d="M150.978 79.0615C132.751 92.5249 106.267 99.6719 83.4965 99.6719C51.5834 99.6719 22.8292 87.8706 1.11086 68.2576C-0.606785 66.7066 0.944196 64.6013 2.99387 65.8196C26.4854 79.4497 55.4618 87.7046 85.4357 87.7046C105.658 87.7046 127.875 83.4942 148.319 74.851C151.366 73.4654 153.97 76.8458 150.978 79.0615ZM158.569 70.4183C156.242 67.4268 143.166 68.9778 137.238 69.6981C135.465 69.9203 135.188 68.3687 136.795 67.2053C147.211 59.8915 164.331 61.9974 166.325 64.4347C168.32 66.9281 165.771 84.0478 156.02 92.2478C154.525 93.5223 153.084 92.8576 153.749 91.1955C155.964 85.7098 160.896 73.3549 158.569 70.4183Z" fill="#FF9900"/>
</svg>
