<svg width="180" height="160" viewBox="0 0 180 160" fill="none" xmlns="http://www.w3.org/2000/svg">
<path d="M147.713 51.8062C145.801 51.1502 143.873 50.5426 141.93 49.9837C142.257 48.6504 142.557 47.3332 142.824 46.0392C147.201 24.7894 144.339 7.67005 134.565 2.03356C125.193 -3.36995 109.866 2.26444 94.3865 15.736C92.8609 17.0661 91.3692 18.4345 89.9128 19.8399C88.9378 18.9053 87.9456 17.9889 86.9367 17.0911C70.7135 2.6869 54.4525 -3.38398 44.6882 2.26865C35.3247 7.689 32.5521 23.7823 36.4932 43.9213C36.8852 45.9158 37.328 47.9001 37.8209 49.8722C35.5191 50.5262 33.2981 51.2223 31.1725 51.9634C12.1521 58.595 0.00543785 68.9872 0.00543785 79.7669C0.00543785 90.9002 13.0454 102.067 32.856 108.838C34.462 109.385 36.0815 109.892 37.7128 110.358C37.183 112.482 36.7126 114.62 36.3023 116.77C32.5451 136.56 35.4791 152.273 44.8174 157.659C54.4623 163.221 70.6504 157.504 86.4125 143.725C87.6906 142.605 88.9406 141.453 90.1612 140.271C91.7385 141.793 93.3578 143.27 95.0174 144.702C110.286 157.84 125.365 163.145 134.695 157.744C144.33 152.166 147.462 135.286 143.396 114.749C143.076 113.14 142.717 111.54 142.319 109.948C143.456 109.611 144.572 109.264 145.659 108.904C166.255 102.081 179.655 91.049 179.655 79.7669C179.655 68.9479 167.116 58.4855 147.713 51.8062ZM143.246 101.62C142.264 101.944 141.256 102.258 140.229 102.563C137.955 95.3655 134.887 87.7122 131.132 79.8041C134.715 72.0848 137.665 64.529 139.875 57.3781C141.713 57.9101 143.496 58.4708 145.215 59.0623C161.84 64.7858 171.98 73.2469 171.98 79.7669C171.98 86.7115 161.029 95.7269 143.246 101.62ZM135.868 116.24C137.666 125.321 137.922 133.531 136.731 139.95C135.662 145.718 133.51 149.563 130.849 151.103C125.188 154.38 113.081 150.121 100.023 138.884C98.4794 137.553 96.9731 136.179 95.5058 134.765C100.568 129.229 105.627 122.793 110.565 115.645C119.25 114.874 127.455 113.614 134.895 111.894C135.254 113.335 135.578 114.784 135.868 116.24ZM61.2518 150.537C55.7205 152.49 51.3149 152.546 48.6518 151.01C42.9851 147.742 40.6293 135.126 43.8426 118.202C44.2246 116.202 44.662 114.213 45.1542 112.238C52.5128 113.866 60.6581 115.036 69.3633 115.742C74.3346 122.737 79.5395 129.165 84.7851 134.795C83.6703 135.874 82.5292 136.925 81.3626 137.947C74.3921 144.04 67.4075 148.363 61.2518 150.537ZM35.3388 101.577C26.5788 98.5823 19.3444 94.6911 14.3858 90.4448C9.92965 86.6294 7.68053 82.8406 7.68053 79.7669C7.68053 73.2251 17.4328 64.8813 33.6988 59.2104C35.6728 58.5227 37.7388 57.8736 39.8826 57.2644C42.1311 64.5767 45.0798 72.2223 48.6384 79.9536C45.0335 87.7992 42.0426 95.5669 39.7725 102.965C38.2834 102.539 36.8051 102.076 35.3388 101.577ZM44.0251 42.4469C40.6489 25.1929 42.8911 12.1774 48.5339 8.91076C54.5437 5.43146 67.8335 10.3922 81.8412 22.8301C82.7547 23.643 83.6533 24.4723 84.5367 25.3178C79.317 30.9227 74.1598 37.3037 69.2328 44.2567C60.7837 45.0399 52.696 46.2974 45.2602 47.9823C44.802 46.1481 44.3902 44.3019 44.0251 42.4469ZM121.518 61.583C119.761 58.5493 117.94 55.5537 116.055 52.5985C121.786 53.3234 127.278 54.2855 132.436 55.4616C130.888 60.4244 128.958 65.6125 126.686 70.9318C125.026 67.7815 123.303 64.6646 121.518 61.583ZM89.9163 30.8034C93.456 34.6385 97.0012 38.9199 100.488 43.5655C93.4146 43.2314 86.3291 43.23 79.2553 43.5613C82.7458 38.9585 86.3212 34.6827 89.9163 30.8034ZM58.1121 61.635C56.3495 64.6917 54.6586 67.7891 53.0405 70.9248C50.8061 65.6244 48.8939 60.4125 47.3325 55.3795C52.4581 54.2329 57.924 53.2953 63.6195 52.5837C61.7131 55.5571 59.8768 58.5754 58.1121 61.635ZM63.783 107.496C57.8988 106.839 52.3507 105.95 47.2265 104.834C48.8125 99.7115 50.7668 94.3886 53.0496 88.9746C54.6741 92.1126 56.3721 95.2119 58.1423 98.2701C59.9626 101.414 61.8475 104.493 63.783 107.496ZM90.1282 129.271C86.4904 125.347 82.8623 121.006 79.3191 116.336C82.7591 116.471 86.2658 116.54 89.83 116.54C93.4918 116.54 97.1114 116.457 100.674 116.299C97.176 121.053 93.644 125.401 90.1282 129.271ZM126.758 88.6981C129.16 94.1718 131.184 99.4665 132.791 104.502C127.582 105.69 121.958 106.648 116.033 107.358C117.932 104.348 119.77 101.301 121.548 98.2174C123.355 95.0834 125.092 91.9095 126.758 88.6981ZM114.9 94.383C112.179 99.1103 109.305 103.748 106.282 108.288C100.807 108.676 95.3191 108.869 89.83 108.866C84.2391 108.866 78.8012 108.692 73.5647 108.352C70.4631 103.822 67.534 99.1766 64.7837 94.4251C62.0463 89.6989 59.49 84.8704 57.1191 79.9501C59.484 75.0286 62.0332 70.1978 64.7612 65.4679L64.7605 65.4687C67.4875 60.7376 70.3933 56.1118 73.4714 51.6013C78.8139 51.1971 84.2925 50.9865 89.8293 50.9865C95.3914 50.9865 100.878 51.1992 106.219 51.6062C109.266 56.11 112.153 60.7198 114.875 65.4272C117.612 70.1467 120.195 74.9539 122.619 79.8413C120.22 84.7786 117.645 89.629 114.9 94.383ZM130.732 8.68198C136.747 12.1515 139.087 26.1423 135.307 44.4897C135.066 45.6602 134.795 46.8525 134.5 48.0616C127.046 46.3409 118.953 45.0616 110.479 44.2665C105.543 37.2371 100.428 30.8462 95.2932 25.3136C96.6389 24.0164 98.0166 22.7528 99.4251 21.5241C112.688 9.98234 125.084 5.42514 130.732 8.68198ZM89.83 63.7248C98.6896 63.7248 105.872 70.9072 105.872 79.7669C105.872 88.6265 98.6896 95.809 89.83 95.809C80.9704 95.809 73.7879 88.6265 73.7879 79.7669C73.7879 70.9072 80.9704 63.7248 89.83 63.7248Z" fill="#00D8FF"/>
</svg>
